<svg xmlns="http://www.w3.org/2000/svg" width="66" height="65" viewBox="0 0 66 65"><g fill="none" fill-rule="evenodd"><g fill-rule="nonzero"><g transform="translate(-984 -3683) translate(984 3683)"><path fill="#A4D4F4" d="M52.78 0L57.26 0 57.26 6.72 52.78 6.72z"></path><path fill="#A4D4F4" d="M65.1 11.2h-4.48c2.474 0 4.48 2.006 4.48 4.48v38.08c0 1.237-1.003 2.24-2.24 2.24H47.18c-1.237 0-2.24-1.003-2.24-2.24V15.68c0-2.474 2.006-4.48 4.48-4.48h-4.48V6.72c0-1.237 1.003-2.24 2.24-2.24h15.68c1.237 0 2.24 1.003 2.24 2.24v4.48z"></path><path fill="#6E9EFF" d="M65.1 24.64v29.12c0 1.237-1.003 2.24-2.24 2.24H47.18c-1.237 0-2.24-1.003-2.24-2.24V24.64H65.1z"></path><path fill="#C2C5C6" d="M28.14 5.6H12.46c-4.948 0-8.96 4.012-8.96 8.96v22.4h33.6v-22.4c0-4.948-4.012-8.96-8.96-8.96zm2.24 24.64H10.22V16.8c0-2.474 2.006-4.48 4.48-4.48h11.2c2.474 0 4.48 2.006 4.48 4.48v13.44z"></path><g fill="#F7372F"><path d="M30.38 0L37.1 0 37.1 4.48 30.38 4.48zM3.5 0L10.22 0 10.22 4.48 3.5 4.48zM40.457 24.288c.104 5.542-2.085 10.88-6.05 14.754-.838.82-1.964 1.278-3.136 1.278H9.329c-1.177-.001-2.306-.463-3.145-1.288C.318 33.279-1.47 24.541 1.666 16.946 4.802 9.351 12.233 4.419 20.449 4.48c10.894.08 19.822 8.915 20.008 19.808z" transform="translate(0 19.04)"></path></g><path fill="#EAAF00" d="M24.78 51.52L49.42 51.52 49.42 60.48 24.78 60.48z"></path><path fill="#6E9EFF" d="M47.18 4.48h15.68c1.237 0 2.24 1.003 2.24 2.24v4.48H44.94V6.72c0-1.237 1.003-2.24 2.24-2.24z"></path><rect width="13.44" height="17.92" x="13.58" y="47.04" fill="#FFC107" rx="2.24"></rect><rect width="13.44" height="17.92" x="47.18" y="47.04" fill="#FFC107" rx="2.24"></rect></g></g></g></svg>