<svg xmlns="http://www.w3.org/2000/svg" width="64" height="65" viewBox="0 0 64 65"><g fill="none" fill-rule="evenodd"><g fill-rule="nonzero"><g transform="translate(-538 -3680) translate(538 3680)"><path fill="#FFD33F" d="M16.54 31.885c-.608 0-1.218.033-1.823.098C7.667 32.741.936 39.444.153 46.496c-1.041 9.05 5.45 17.228 14.5 18.27 3.689.424 7.411-.41 10.568-2.364 1.599-1.04 3.423-1.681 5.32-1.87.458-.04.922-.06 1.392-.06.447 0 .89.015 1.329.047 1.926.182 3.78.83 5.4 1.887 7.752 4.784 17.913 2.378 22.697-5.373 1.945-3.151 2.773-6.865 2.35-10.543-.782-7.047-7.514-13.75-14.564-14.507-.605-.065-1.212-.098-1.819-.098H16.541z"></path><circle cx="39.63" cy="48.378" r="3.299" fill="#EA3836"></circle><path fill="#FFAC3E" d="M60.616 38.998c-13.234 14.83-43.037 20.35-54.678 21.99 5.442 4.6 13.228 5.168 19.28 1.408 1.598-1.04 3.422-1.68 5.32-1.869.46-.036.926-.055 1.395-.055.447 0 .89.015 1.329.047 1.926.182 3.78.83 5.4 1.887 7.752 4.784 17.913 2.378 22.697-5.373 1.945-3.151 2.773-6.865 2.35-10.543-.355-2.726-1.422-5.31-3.093-7.492z"></path><path fill="#383856" d="M14.342 40.681L18.74 40.681 18.74 46.179 24.237 46.179 24.237 50.577 18.74 50.577 18.74 56.074 14.342 56.074 14.342 50.577 8.844 50.577 8.844 46.179 14.342 46.179z"></path><g fill="#91CECE" transform="translate(43.967 38.392)"><circle cx="3.359" cy="3.389" r="3.299"></circle><circle cx="3.359" cy="16.583" r="3.299"></circle></g><circle cx="55.028" cy="48.378" r="3.299" fill="#EA3836"></circle><path fill="#874D1B" d="M29.735 31.885L29.735 27.487 34.132 27.487 34.132 31.885"></path><path fill="#383856" d="M33.033 27.487h-2.199V24.19c0-1.215-.984-2.2-2.199-2.2h-5.497c-2.43 0-4.398-1.968-4.398-4.397 0-2.429 1.969-4.398 4.398-4.398h17.591c1.215 0 2.2-.984 2.2-2.2 0-1.214-.985-2.198-2.2-2.198h-5.497c-2.429 0-4.398-1.97-4.398-4.398V0h2.199v4.398c0 1.215.984 2.199 2.199 2.199h5.497c2.43 0 4.398 1.97 4.398 4.398 0 2.429-1.969 4.398-4.398 4.398H23.138c-1.215 0-2.2.984-2.2 2.199 0 1.215.985 2.199 2.2 2.199h5.497c2.429 0 4.398 1.969 4.398 4.398v3.298z"></path><path fill="#D62121" d="M41.339 45.57c.319.513.488 1.105.49 1.708 0 1.822-1.477 3.299-3.299 3.299-.603-.002-1.195-.172-1.708-.49.939 1.554 2.962 2.053 4.516 1.114 1.555-.939 2.054-2.962 1.115-4.516-.275-.457-.658-.84-1.114-1.115z"></path><path fill="#83B2B7" d="M49.035 38.973c.319.513.488 1.105.49 1.708 0 1.822-1.476 3.299-3.298 3.299-.604-.002-1.195-.172-1.709-.49.94 1.554 2.962 2.053 4.517 1.114 1.555-.939 2.054-2.962 1.115-4.516-.276-.457-.659-.84-1.115-1.115z"></path><path fill="#D62121" d="M56.731 45.57c.32.513.489 1.105.49 1.708 0 1.822-1.476 3.299-3.298 3.299-.603-.002-1.195-.172-1.708-.49.939 1.554 2.962 2.053 4.516 1.114 1.555-.939 2.054-2.962 1.115-4.516-.276-.457-.658-.84-1.115-1.115z"></path><path fill="#83B2B7" d="M49.035 52.166c.319.514.488 1.105.49 1.71 0 1.821-1.476 3.298-3.298 3.298-.604-.003-1.195-.172-1.709-.49.94 1.554 2.962 2.053 4.517 1.114 1.555-.939 2.054-2.962 1.115-4.516-.276-.457-.659-.84-1.115-1.116z"></path><path fill="#202033" d="M8.844 49.502v1.075h5.498v5.497h4.398v-5.497h5.497v-4.398h-1.835c-4.343 3.028-10.965 3.331-13.558 3.323z"></path><path fill="#6B3713" d="M29.735 31.585v.3h4.397v-3.612c-1.047 1.572-2.599 2.74-4.397 3.312z"></path></g></g></g></svg>