<svg width="512" height="512" viewBox="0 0 512 512" fill="none" xmlns="http://www.w3.org/2000/svg">
<path d="M98.9492 74.1406H396.549V437.861H98.9492V74.1406Z" fill="#EFEFEF"/>
<path d="M375.75 417.5H156.916C155.59 417.5 154.318 416.973 153.38 416.036C152.443 415.098 151.916 413.826 151.916 412.5C151.916 411.174 152.443 409.902 153.38 408.964C154.318 408.027 155.59 407.5 156.916 407.5H370.75V101.334C370.75 100.008 371.277 98.7361 372.215 97.7985C373.152 96.8608 374.424 96.334 375.75 96.334C377.076 96.334 378.348 96.8608 379.286 97.7985C380.223 98.7361 380.75 100.008 380.75 101.334V412.5C380.75 413.826 380.223 415.098 379.286 416.036C378.348 416.973 377.076 417.5 375.75 417.5ZM136.916 417.5H127.082C125.756 417.5 124.484 416.973 123.546 416.036C122.609 415.098 122.082 413.826 122.082 412.5C122.082 411.174 122.609 409.902 123.546 408.964C124.484 408.027 125.756 407.5 127.082 407.5H136.916C138.242 407.5 139.514 408.027 140.452 408.964C141.389 409.902 141.916 411.174 141.916 412.5C141.916 413.826 141.389 415.098 140.452 416.036C139.514 416.973 138.242 417.5 136.916 417.5Z" fill="#EAEDF5"/>
<path d="M396.549 39V74.14H98.9492V39C98.9492 30.7783 102.215 22.8933 108.029 17.0797C113.843 11.2661 121.728 8 129.949 8H365.549C373.77 8.00371 381.653 11.271 387.465 17.0838C393.278 22.8966 396.545 30.7794 396.549 39ZM98.9492 437.86H396.549V473C396.545 481.221 393.278 489.103 387.465 494.916C381.653 500.729 373.77 503.996 365.549 504H129.949C121.728 504 113.843 500.734 108.029 494.92C102.215 489.107 98.9492 481.222 98.9492 473V437.86Z" fill="#8276E3"/>
<path d="M463.412 88.8175C456.046 86.3835 448.438 84.2555 444.166 65.8555C440.232 82.8035 433.93 85.8395 424.92 88.8175C439.614 93.6715 441.83 101.711 444.166 111.777C448.2 94.4255 454.852 91.6455 463.412 88.8175ZM487.6 154.913C480.234 152.479 472.626 150.351 468.354 131.951C464.42 148.899 458.118 151.935 449.108 154.913C463.802 159.767 466.02 167.807 468.354 177.873C472.374 160.521 479.034 157.741 487.6 154.913ZM62.8982 376.955C55.5302 374.521 47.9223 372.393 43.6523 353.993C39.7183 370.941 33.4143 373.979 24.4062 376.955C39.1003 381.811 41.3163 389.849 43.6523 399.915C47.6783 382.563 54.3382 379.783 62.8982 376.955Z" fill="#F0C020"/>
<path d="M448.985 112.896C452.527 97.6245 457.743 95.8965 464.963 93.5145C465.951 93.1868 466.81 92.5563 467.419 91.7127C468.028 90.869 468.356 89.855 468.356 88.8145C468.356 87.774 468.028 86.7599 467.419 85.9162C466.81 85.0726 465.951 84.4422 464.963 84.1145C458.027 81.8305 452.609 80.3525 448.983 64.7325C448.728 63.6468 448.112 62.6794 447.238 61.987C446.363 61.2947 445.281 60.918 444.165 60.918C443.05 60.918 441.967 61.2947 441.093 61.987C440.218 62.6794 439.603 63.6468 439.347 64.7325C435.801 80.0065 430.855 81.6405 423.369 84.1165C422.381 84.4431 421.521 85.0732 420.911 85.917C420.301 86.7608 419.973 87.7754 419.973 88.8165C419.973 89.8576 420.301 90.8721 420.911 91.7159C421.521 92.5597 422.381 93.1898 423.369 93.5165C435.803 97.6265 437.213 103.702 439.347 112.898C439.601 113.986 440.215 114.957 441.091 115.651C441.966 116.345 443.05 116.723 444.167 116.723C445.284 116.723 446.369 116.344 447.243 115.65C448.118 114.955 448.732 113.985 448.985 112.896ZM436.519 88.9305C439.725 86.7065 442.352 83.7491 444.183 80.3045C445.972 83.6803 448.502 86.607 451.583 88.8645C448.548 91.0237 446.045 93.8474 444.265 97.1205C442.323 93.8499 439.677 91.0524 436.519 88.9305ZM489.145 150.216C482.209 147.932 476.791 146.456 473.165 130.834C472.909 129.749 472.294 128.781 471.42 128.089C470.545 127.397 469.463 127.02 468.347 127.02C467.232 127.02 466.149 127.397 465.275 128.089C464.4 128.781 463.785 129.749 463.529 130.834C459.983 146.108 455.037 147.744 447.551 150.216C446.564 150.544 445.705 151.175 445.096 152.018C444.487 152.862 444.159 153.876 444.159 154.916C444.159 155.957 444.487 156.971 445.096 157.815C445.705 158.658 446.564 159.289 447.551 159.616C459.985 163.722 461.395 169.798 463.529 178.996C463.783 180.084 464.397 181.055 465.272 181.749C466.147 182.444 467.231 182.822 468.348 182.822C469.466 182.822 470.55 182.444 471.425 181.749C472.3 181.055 472.914 180.084 473.167 178.996C476.709 163.722 481.925 161.996 489.145 159.616C490.133 159.289 490.992 158.658 491.601 157.815C492.21 156.971 492.538 155.957 492.538 154.916C492.538 153.876 492.21 152.862 491.601 152.018C490.992 151.175 490.133 150.544 489.145 150.216ZM468.445 163.216C466.503 159.946 463.858 157.149 460.701 155.026C463.906 152.802 466.534 149.845 468.365 146.4C470.152 149.777 472.683 152.703 475.765 154.958C472.729 157.118 470.225 159.943 468.445 163.216ZM64.4473 372.258C57.5133 369.974 52.0954 368.498 48.4694 352.876C48.2135 351.791 47.5985 350.823 46.724 350.131C45.8495 349.439 44.7667 349.062 43.6514 349.062C42.536 349.062 41.4533 349.439 40.5788 350.131C39.7043 350.823 39.0892 351.791 38.8334 352.876C35.2854 368.15 30.3414 369.786 22.8534 372.26C21.8658 372.588 21.0066 373.219 20.3976 374.062C19.7887 374.906 19.4609 375.92 19.4609 376.96C19.4609 378.001 19.7887 379.015 20.3976 379.859C21.0066 380.702 21.8658 381.333 22.8534 381.66C35.2894 385.768 36.6994 391.844 38.8314 401.042C39.0848 402.13 39.699 403.101 40.5739 403.795C41.4489 404.49 42.5332 404.868 43.6504 404.868C44.7675 404.868 45.8518 404.49 46.7268 403.795C47.6018 403.101 48.2159 402.13 48.4694 401.042C52.0134 385.768 57.2293 384.042 64.4473 381.66C65.4356 381.333 66.2956 380.703 66.9052 379.859C67.5147 379.015 67.8428 378.001 67.8428 376.959C67.8428 375.918 67.5147 374.904 66.9052 374.06C66.2956 373.216 65.4356 372.586 64.4473 372.258ZM43.7494 385.258C41.8041 381.989 39.157 379.192 35.9994 377.07C39.2036 374.845 41.831 371.888 43.6634 368.444C45.4508 371.82 47.981 374.746 51.0634 377.002C48.029 379.162 45.5274 381.986 43.7494 385.258ZM223.199 475.92H272.299C273.625 475.92 274.897 475.394 275.835 474.456C276.773 473.518 277.299 472.247 277.299 470.92C277.299 469.594 276.773 468.323 275.835 467.385C274.897 466.447 273.625 465.92 272.299 465.92H223.199C221.873 465.92 220.602 466.447 219.664 467.385C218.726 468.323 218.199 469.594 218.199 470.92C218.199 472.247 218.726 473.518 219.664 474.456C220.602 475.394 221.873 475.92 223.199 475.92Z" fill="#342C6E"/>
<path d="M185.539 13C188.3 13 190.539 10.7614 190.539 8C190.539 5.23858 188.3 3 185.539 3C182.778 3 180.539 5.23858 180.539 8C180.539 10.7614 182.778 13 185.539 13Z" fill="#342C6E"/>
<path d="M396.539 148.26C399.3 148.26 401.539 146.021 401.539 143.26C401.539 140.498 399.3 138.26 396.539 138.26C393.778 138.26 391.539 140.498 391.539 143.26C391.539 146.021 393.778 148.26 396.539 148.26Z" fill="#342C6E"/>
<path d="M365.539 3H205.539C204.213 3 202.941 3.52678 202.003 4.46447C201.066 5.40215 200.539 6.67392 200.539 8C200.539 9.32608 201.066 10.5979 202.003 11.5355C202.941 12.4732 204.213 13 205.539 13H365.539C372.427 13.0237 379.027 15.7706 383.898 20.6414C388.768 25.5122 391.515 32.1117 391.539 39V69.138H103.959V39C103.983 32.1117 106.73 25.5122 111.6 20.6414C116.471 15.7706 123.071 13.0237 129.959 13H165.539C166.196 13.0026 166.846 12.8759 167.454 12.6271C168.062 12.3782 168.614 12.0121 169.08 11.5497C169.547 11.0872 169.917 10.5375 170.171 9.93189C170.424 9.32627 170.556 8.67661 170.559 8.02C170.562 7.36339 170.435 6.71269 170.186 6.10506C169.937 5.49743 169.571 4.94476 169.109 4.47861C168.646 4.01246 168.097 3.64196 167.491 3.38826C166.885 3.13456 166.236 3.00263 165.579 3H129.959C120.415 3.01112 111.264 6.80753 104.515 13.5564C97.7665 20.3053 93.9701 29.4556 93.959 39V473C93.9701 482.544 97.7665 491.695 104.515 498.444C111.264 505.192 120.415 508.989 129.959 509H365.539C375.082 508.986 384.231 505.188 390.979 498.44C397.727 491.692 401.525 482.543 401.539 473V163.32C401.539 161.994 401.012 160.722 400.075 159.784C399.137 158.847 397.865 158.32 396.539 158.32C395.213 158.32 393.941 158.847 393.003 159.784C392.066 160.722 391.539 161.994 391.539 163.32V432.86H103.959V79.138H391.539V123.2C391.539 124.526 392.066 125.798 393.003 126.736C393.941 127.673 395.213 128.2 396.539 128.2C397.865 128.2 399.137 127.673 400.075 126.736C401.012 125.798 401.539 124.526 401.539 123.2V39C401.525 29.4566 397.727 20.3081 390.979 13.5599C384.231 6.81172 375.082 3.01428 365.539 3ZM391.539 442.86V473C391.515 479.888 388.768 486.488 383.898 491.359C379.027 496.229 372.427 498.976 365.539 499H129.959C123.071 498.976 116.471 496.229 111.6 491.359C106.73 486.488 103.983 479.888 103.959 473V442.86H391.539Z" fill="#342C6E"/>
<path d="M287.42 46.0801C288.746 46.0801 290.018 45.5533 290.956 44.6156C291.893 43.6779 292.42 42.4062 292.42 41.0801C292.42 39.754 291.893 38.4822 290.956 37.5445C290.018 36.6069 288.746 36.0801 287.42 36.0801H284.9C283.574 36.0801 282.302 36.6069 281.365 37.5445C280.427 38.4822 279.9 39.754 279.9 41.0801C279.9 42.4062 280.427 43.6779 281.365 44.6156C282.302 45.5533 283.574 46.0801 284.9 46.0801H287.42ZM257.68 46.0801C259.006 46.0801 260.278 45.5533 261.216 44.6156C262.153 43.6779 262.68 42.4062 262.68 41.0801C262.68 39.754 262.153 38.4822 261.216 37.5445C260.278 36.6069 259.006 36.0801 257.68 36.0801H208.08C206.754 36.0801 205.482 36.6069 204.545 37.5445C203.607 38.4822 203.08 39.754 203.08 41.0801C203.08 42.4062 203.607 43.6779 204.545 44.6156C205.482 45.5533 206.754 46.0801 208.08 46.0801H257.68ZM334.382 251H314.86C309.582 250.947 304.538 248.814 300.825 245.063C297.111 241.312 295.028 236.247 295.028 230.969C295.028 225.691 297.111 220.626 300.825 216.875C304.538 213.124 309.582 210.991 314.86 210.938H359.412C360.738 210.938 362.01 210.411 362.948 209.474C363.885 208.536 364.412 207.264 364.412 205.938C364.412 204.612 363.885 203.34 362.948 202.403C362.01 201.465 360.738 200.938 359.412 200.938H314.86C306.938 201.003 299.362 204.195 293.783 209.82C288.204 215.445 285.073 223.047 285.073 230.969C285.073 238.892 288.204 246.493 293.783 252.118C299.362 257.743 306.938 260.935 314.86 261H334.382C339.66 261.053 344.704 263.186 348.417 266.937C352.131 270.688 354.214 275.753 354.214 281.031C354.214 286.309 352.131 291.374 348.417 295.125C344.704 298.876 339.66 301.009 334.382 301.062H289.83C288.504 301.062 287.232 301.589 286.295 302.527C285.357 303.464 284.83 304.736 284.83 306.062C284.83 307.388 285.357 308.66 286.295 309.598C287.232 310.535 288.504 311.062 289.83 311.062H334.382C342.304 310.997 349.88 307.805 355.459 302.18C361.038 296.555 364.169 288.954 364.169 281.031C364.169 273.109 361.038 265.507 355.459 259.882C349.88 254.257 342.304 251.065 334.382 251ZM253 217.16C253.848 216.141 254.258 214.828 254.138 213.508C254.017 212.187 253.378 210.969 252.36 210.12C251.328 209.306 250.022 208.918 248.713 209.037C247.403 209.156 246.189 209.773 245.32 210.76C244.509 211.783 244.129 213.082 244.263 214.38C244.397 215.679 245.033 216.873 246.036 217.709C247.039 218.545 248.329 218.955 249.63 218.852C250.931 218.75 252.141 218.142 253 217.16Z" fill="#342C6E"/>
<path d="M258.66 225.557C257.395 225.953 256.339 226.835 255.724 228.009C255.108 229.184 254.985 230.554 255.38 231.82C256.277 234.7 256.729 237.701 256.72 240.717V271.26C256.823 275.237 256.129 279.194 254.678 282.898C253.227 286.603 251.049 289.979 248.273 292.829C245.496 295.678 242.178 297.942 238.512 299.489C234.846 301.035 230.908 301.831 226.93 301.831C222.952 301.831 219.013 301.035 215.348 299.489C211.682 297.942 208.363 295.678 205.587 292.829C202.81 289.979 200.633 286.603 199.182 282.898C197.731 279.194 197.037 275.237 197.14 271.26V240.717C197.155 236.512 198.057 232.357 199.788 228.524C201.519 224.691 204.039 221.267 207.184 218.475C210.329 215.683 214.028 213.586 218.039 212.322C222.05 211.058 226.282 210.654 230.46 211.137C231.778 211.291 233.103 210.915 234.143 210.092C235.184 209.269 235.855 208.066 236.009 206.748C236.163 205.431 235.787 204.106 234.964 203.065C234.141 202.024 232.938 201.353 231.62 201.199C230.065 201.031 228.503 200.945 226.94 200.939C216.392 200.952 206.279 205.146 198.819 212.603C191.358 220.059 187.158 230.17 187.14 240.717V271.26C187.021 276.56 187.962 281.831 189.909 286.762C191.855 291.694 194.767 296.187 198.473 299.977C202.18 303.768 206.607 306.78 211.493 308.836C216.38 310.892 221.628 311.952 226.93 311.952C232.232 311.952 237.48 310.892 242.367 308.836C247.253 306.78 251.68 303.768 255.386 299.977C259.093 296.187 262.005 291.694 263.951 286.762C265.897 281.831 266.839 276.56 266.72 271.26V240.717C266.727 236.69 266.12 232.684 264.92 228.839C264.513 227.582 263.63 226.535 262.459 225.921C261.289 225.308 259.925 225.177 258.66 225.557ZM167.322 210.938C168.648 210.938 169.92 210.411 170.857 209.473C171.795 208.535 172.322 207.264 172.322 205.938C172.322 204.611 171.795 203.34 170.857 202.402C169.92 201.464 168.648 200.938 167.322 200.938H136.088C134.762 200.938 133.49 201.464 132.552 202.402C131.615 203.34 131.088 204.611 131.088 205.938C131.088 207.264 131.615 208.535 132.552 209.473C133.49 210.411 134.762 210.938 136.088 210.938H147.346V300.999H136.088C134.762 300.999 133.49 301.526 132.552 302.464C131.615 303.402 131.088 304.673 131.088 305.999C131.088 307.326 131.615 308.597 132.552 309.535C133.49 310.473 134.762 310.999 136.088 310.999H167.322C168.648 310.999 169.92 310.473 170.857 309.535C171.795 308.597 172.322 307.326 172.322 305.999C172.322 304.673 171.795 303.402 170.857 302.464C169.92 301.526 168.648 300.999 167.322 300.999H157.346V210.938H167.322Z" fill="#342C6E"/>
</svg>
