<svg width="512" height="512" viewBox="0 0 512 512" fill="none" xmlns="http://www.w3.org/2000/svg">
<g clip-path="url(#clip0_1171_14709)">
<path d="M288.006 40.0039C348.994 40.0039 306.995 64.4957 359.697 86.7803C412.4 109.035 401.908 63.6491 442.032 104.318C482.187 144.926 436.771 133.708 458.209 186.562C479.677 239.385 504.471 199.896 503.987 256.016C504.501 312.105 479.677 272.616 458.209 325.47C436.741 378.293 482.187 367.076 442.032 407.714C401.908 448.382 412.4 402.967 359.697 425.251C306.995 447.536 348.994 471.997 288.006 471.997V40.0039Z" fill="#FFEB00"/>
<path d="M288.006 40.0039V45.7489C300.373 54.2757 290.485 71.0571 327.707 86.7803C350.082 96.2141 360.937 93.4626 369.222 90.2877C365.993 89.2723 362.814 88.1018 359.697 86.7803C306.995 64.4957 348.994 40.0039 288.006 40.0039ZM415.787 86.7198C408.953 86.0546 403.904 89.9551 395.951 92.0112C399.882 94.7325 404.418 98.6029 410.042 104.287C450.166 144.926 404.78 133.708 426.218 186.532C447.686 239.385 472.481 199.896 471.997 256.016C472.481 312.105 447.686 272.616 426.218 325.47C404.75 378.293 450.166 367.076 410.042 407.714C405.729 412.227 401.013 416.336 395.951 419.99C411.07 423.921 415.545 434.564 442.032 407.714C482.187 367.076 436.771 378.293 458.239 325.47C479.707 272.616 504.501 312.105 503.987 256.016C504.471 199.896 479.677 239.385 458.239 186.562C436.771 133.708 482.187 144.926 442.032 104.287C429.484 91.5879 421.895 87.2943 415.787 86.7198ZM357.157 418.781C350.112 418.297 340.86 419.657 327.707 425.221C290.516 440.944 300.373 457.726 288.006 466.252V471.997C348.994 471.997 306.995 447.475 359.667 425.221C363.144 423.77 366.289 422.621 369.222 421.683C365.378 420.089 361.306 419.109 357.157 418.781Z" fill="#FFBB00"/>
<path d="M288.007 480.13C287.983 484.355 287.124 488.533 285.48 492.424C283.836 496.316 281.439 499.844 278.427 502.805C275.415 505.767 271.846 508.104 267.928 509.682C264.009 511.26 259.817 512.048 255.593 512H40.3973C36.1781 512.044 31.9919 511.254 28.0786 509.676C24.1653 508.098 20.6021 505.763 17.5934 502.805C14.5847 499.847 12.1896 496.324 10.5457 492.438C8.90177 488.552 8.04131 484.38 8.01367 480.16V31.8996C8.03337 27.6752 8.88798 23.4964 10.5284 19.6034C12.1687 15.7105 14.5625 12.1802 17.5721 9.21566C20.5816 6.25109 24.1475 3.91071 28.0647 2.32911C31.9819 0.747512 36.1731 -0.044108 40.3973 -0.000223542H255.593C273.553 -0.000223542 288.007 14.2111 288.007 31.8996V480.13Z" fill="#685EB5"/>
<path d="M260.309 0.453125C279.812 216.011 98.2698 470.817 9.79688 490.229C14.0905 502.868 26.0643 512 40.3965 512H255.592C273.553 512 288.006 497.788 288.006 480.13V31.8994C288.006 15.8134 276.002 2.69065 260.309 0.453125Z" fill="#8276E3"/>
<path d="M24.0098 448.019V47.9863H272.012V448.019H24.0098Z" fill="#549AD4"/>
<path d="M260.008 47.9863C250.635 275.972 96.185 403.148 24.0098 431.994V464.015H272.012V47.9863H260.008Z" fill="#3588CB"/>
<path d="M408.016 256.016C408.016 271.776 404.912 287.381 398.881 301.942C392.85 316.502 384.01 329.732 372.866 340.876C361.722 352.02 348.492 360.859 333.932 366.89C319.372 372.922 303.766 376.026 288.006 376.026C272.246 376.026 256.64 372.922 242.08 366.89C227.52 360.859 214.29 352.02 203.146 340.876C192.002 329.732 183.162 316.502 177.131 301.942C171.1 287.381 167.996 271.776 167.996 256.016C167.996 224.187 180.64 193.662 203.146 171.156C225.652 148.65 256.177 136.006 288.006 136.006C319.835 136.006 350.36 148.65 372.866 171.156C395.372 193.662 408.016 224.187 408.016 256.016Z" fill="#685EB5"/>
<path d="M288.007 136.006C263.303 136.033 239.209 143.683 219.014 157.912C198.819 172.141 183.507 192.256 175.169 215.511C166.831 238.765 165.873 264.027 172.425 287.846C178.978 311.666 192.721 332.883 211.78 348.601C193.87 327.092 184.04 300 183.992 272.011C184.007 249.274 190.48 227.009 202.659 207.809C214.837 188.608 232.219 173.262 252.781 163.558C273.343 153.853 296.239 150.19 318.802 152.994C341.365 155.798 362.668 164.954 380.229 179.396C368.984 165.839 354.891 154.923 338.953 147.424C323.015 139.926 305.621 136.027 288.007 136.006Z" fill="#8276E3"/>
<path d="M247.792 207.939C245.724 208.008 243.763 208.875 242.32 210.358L202.286 250.331C201.541 251.075 200.95 251.959 200.546 252.931C200.143 253.904 199.936 254.947 199.936 256C199.936 257.053 200.143 258.096 200.546 259.069C200.95 260.042 201.541 260.925 202.286 261.669L242.289 301.673C249.848 309.232 261.187 297.893 253.628 290.334L219.279 256.015L253.658 221.636C254.798 220.504 255.572 219.056 255.879 217.48C256.186 215.903 256.012 214.27 255.38 212.794C254.748 211.317 253.686 210.065 252.333 209.199C250.98 208.333 249.398 207.894 247.792 207.939Z" fill="#8276E3"/>
<path d="M239.84 207.938C237.761 207.999 235.788 208.867 234.337 210.357L194.364 250.33C193.619 251.074 193.028 251.958 192.625 252.931C192.221 253.903 192.014 254.946 192.014 255.999C192.014 257.052 192.221 258.095 192.625 259.068C193.028 260.041 193.619 260.924 194.364 261.669L234.337 301.672C241.896 309.231 253.235 297.892 245.676 290.333L211.297 256.014L245.676 221.635C246.814 220.505 247.587 219.06 247.895 217.487C248.203 215.913 248.031 214.283 247.403 212.808C246.774 211.332 245.717 210.08 244.369 209.211C243.021 208.343 241.443 207.9 239.84 207.938Z" fill="#F5FAFF"/>
<path d="M343.128 207.939C341.612 208.091 340.17 208.672 338.973 209.614C337.775 210.556 336.871 211.821 336.366 213.258C335.861 214.696 335.777 216.248 336.123 217.732C336.469 219.216 337.231 220.57 338.32 221.636L372.639 256.016L338.32 290.334C330.277 297.833 342.069 309.686 349.598 301.673L389.662 261.67C390.407 260.926 390.998 260.042 391.402 259.069C391.805 258.096 392.013 257.054 392.013 256.001C392.013 254.948 391.805 253.905 391.402 252.932C390.998 251.959 390.407 251.075 389.662 250.331L349.598 210.358C348.769 209.498 347.757 208.834 346.637 208.416C345.517 207.997 344.318 207.834 343.128 207.939Z" fill="#8276E3"/>
<path d="M335.146 207.938C333.633 208.095 332.195 208.679 331.001 209.624C329.808 210.568 328.908 211.832 328.407 213.269C327.906 214.706 327.824 216.256 328.172 217.737C328.519 219.219 329.281 220.571 330.369 221.635L364.688 256.014L330.369 290.333C322.326 297.832 334.088 309.685 341.647 301.672L381.681 261.669C382.426 260.924 383.017 260.041 383.42 259.068C383.824 258.095 384.031 257.052 384.031 255.999C384.031 254.946 383.824 253.903 383.42 252.931C383.017 251.958 382.426 251.074 381.681 250.33L341.677 210.357C340.844 209.492 339.827 208.826 338.702 208.407C337.577 207.989 336.372 207.828 335.176 207.938H335.146Z" fill="#F5FAFF"/>
<path d="M311.742 207.878C310.17 207.934 308.65 208.451 307.37 209.365C306.09 210.28 305.108 211.55 304.545 213.018L272.555 292.995C268.563 302.943 283.44 308.899 287.431 298.982L319.422 218.945C319.939 217.707 320.137 216.359 319.997 215.025C319.858 213.691 319.386 212.413 318.625 211.309C317.864 210.204 316.837 209.309 315.64 208.704C314.443 208.099 313.112 207.805 311.772 207.848L311.742 207.878Z" fill="#8276E3"/>
<path d="M303.791 207.877C302.219 207.933 300.699 208.451 299.419 209.365C298.14 210.279 297.157 211.549 296.595 213.017L264.574 292.994C260.613 302.942 275.459 308.898 279.45 298.981L311.471 218.944C311.989 217.704 312.187 216.353 312.047 215.016C311.906 213.68 311.431 212.4 310.666 211.295C309.902 210.189 308.871 209.294 307.669 208.692C306.468 208.089 305.134 207.829 303.791 207.877Z" fill="#F5FAFF"/>
<path d="M47.9561 104.015C45.92 104.14 44.0084 105.037 42.6109 106.523C41.2134 108.009 40.4353 109.972 40.4353 112.012C40.4353 114.052 41.2134 116.015 42.6109 117.501C44.0084 118.988 45.92 119.885 47.9561 120.01H63.9816C66.1067 120.01 68.1448 119.166 69.6475 117.663C71.1502 116.16 71.9944 114.122 71.9944 111.997C71.9944 109.872 71.1502 107.834 69.6475 106.331C68.1448 104.829 66.1067 103.984 63.9816 103.984L47.9561 104.015ZM95.9722 104.015C93.9361 104.14 92.0244 105.037 90.6269 106.523C89.2295 108.009 88.4514 109.972 88.4514 112.012C88.4514 114.052 89.2295 116.015 90.6269 117.501C92.0244 118.988 93.9361 119.885 95.9722 120.01H111.998C114.123 120.01 116.161 119.166 117.664 117.663C119.166 116.16 120.01 114.122 120.01 111.997C120.01 109.872 119.166 107.834 117.664 106.331C116.161 104.829 114.123 103.984 111.998 103.984L95.9722 104.015ZM143.988 104.015C142.897 103.947 141.803 104.104 140.774 104.476C139.746 104.848 138.804 105.426 138.007 106.175C137.21 106.924 136.575 107.829 136.141 108.833C135.707 109.836 135.483 110.919 135.483 112.012C135.483 113.106 135.707 114.188 136.141 115.192C136.575 116.196 137.21 117.1 138.007 117.849C138.804 118.599 139.746 119.177 140.774 119.548C141.803 119.92 142.897 120.077 143.988 120.01H160.014C162.139 120.01 164.177 119.166 165.68 117.663C167.182 116.16 168.027 114.122 168.027 111.997C168.027 109.872 167.182 107.834 165.68 106.331C164.177 104.829 162.139 103.984 160.014 103.984L143.988 104.015ZM192.004 104.015C190.913 103.947 189.819 104.104 188.79 104.476C187.762 104.848 186.82 105.426 186.023 106.175C185.226 106.924 184.591 107.829 184.157 108.833C183.723 109.836 183.5 110.919 183.5 112.012C183.5 113.106 183.723 114.188 184.157 115.192C184.591 116.196 185.226 117.1 186.023 117.849C186.82 118.599 187.762 119.177 188.79 119.548C189.819 119.92 190.913 120.077 192.004 120.01H208.03C210.155 120.01 212.193 119.166 213.696 117.663C215.198 116.16 216.043 114.122 216.043 111.997C216.043 109.872 215.198 107.834 213.696 106.331C212.193 104.829 210.155 103.984 208.03 103.984L192.004 104.015ZM47.9561 152.031C45.92 152.156 44.0084 153.053 42.6109 154.539C41.2134 156.025 40.4353 157.988 40.4353 160.028C40.4353 162.068 41.2134 164.031 42.6109 165.517C44.0084 167.004 45.92 167.901 47.9561 168.026H63.9816C66.1067 168.026 68.1448 167.182 69.6475 165.679C71.1502 164.176 71.9944 162.138 71.9944 160.013C71.9944 157.888 71.1502 155.85 69.6475 154.347C68.1448 152.845 66.1067 152 63.9816 152L47.9561 152.031ZM95.9722 152.031C93.9361 152.156 92.0244 153.053 90.6269 154.539C89.2295 156.025 88.4514 157.988 88.4514 160.028C88.4514 162.068 89.2295 164.031 90.6269 165.517C92.0244 167.004 93.9361 167.901 95.9722 168.026H111.998C114.123 168.026 116.161 167.182 117.664 165.679C119.166 164.176 120.01 162.138 120.01 160.013C120.01 157.888 119.166 155.85 117.664 154.347C116.161 152.845 114.123 152 111.998 152L95.9722 152.031ZM143.988 152.031C142.897 151.964 141.803 152.121 140.774 152.492C139.746 152.864 138.804 153.442 138.007 154.191C137.21 154.94 136.575 155.845 136.141 156.849C135.707 157.853 135.483 158.935 135.483 160.028C135.483 161.122 135.707 162.204 136.141 163.208C136.575 164.212 137.21 165.116 138.007 165.866C138.804 166.615 139.746 167.193 140.774 167.565C141.803 167.936 142.897 168.093 143.988 168.026H160.014C162.139 168.026 164.177 167.182 165.68 165.679C167.182 164.176 168.027 162.138 168.027 160.013C168.027 157.888 167.182 155.85 165.68 154.347C164.177 152.845 162.139 152 160.014 152L143.988 152.031ZM47.9561 200.017C45.831 200.017 43.7929 200.861 42.2902 202.363C40.7876 203.866 39.9434 205.904 39.9434 208.029C39.9434 210.154 40.7876 212.192 42.2902 213.695C43.7929 215.198 45.831 216.042 47.9561 216.042H63.9816C66.1067 216.042 68.1448 215.198 69.6475 213.695C71.1502 212.192 71.9944 210.154 71.9944 208.029C71.9944 205.904 71.1502 203.866 69.6475 202.363C68.1448 200.861 66.1067 200.017 63.9816 200.017H47.9561ZM95.9722 200.017C93.8471 200.017 91.809 200.861 90.3063 202.363C88.8036 203.866 87.9594 205.904 87.9594 208.029C87.9594 210.154 88.8036 212.192 90.3063 213.695C91.809 215.198 93.8471 216.042 95.9722 216.042H111.998C114.123 216.042 116.161 215.198 117.664 213.695C119.166 212.192 120.01 210.154 120.01 208.029C120.01 205.904 119.166 203.866 117.664 202.363C116.161 200.861 114.123 200.017 111.998 200.017H95.9722ZM143.988 200.017C141.863 200.017 139.825 200.861 138.322 202.363C136.82 203.866 135.975 205.904 135.975 208.029C135.975 210.154 136.82 212.192 138.322 213.695C139.825 215.198 141.863 216.042 143.988 216.042H151.971C154.096 216.042 156.134 215.198 157.637 213.695C159.139 212.192 159.984 210.154 159.984 208.029C159.984 205.904 159.139 203.866 157.637 202.363C156.134 200.861 154.096 200.017 151.971 200.017H143.988ZM143.928 248.002C142.876 248.002 141.834 248.21 140.861 248.612C139.889 249.015 139.006 249.605 138.262 250.349C137.518 251.093 136.928 251.977 136.525 252.949C136.122 253.921 135.915 254.963 135.915 256.015C135.915 257.067 136.122 258.109 136.525 259.081C136.928 260.054 137.518 260.937 138.262 261.681C139.006 262.425 139.889 263.015 140.861 263.418C141.834 263.821 142.876 264.028 143.928 264.028C146.053 264.028 148.091 263.184 149.594 261.681C151.096 260.178 151.941 258.14 151.941 256.015C151.941 253.89 151.096 251.852 149.594 250.349C148.091 248.847 146.053 248.002 143.928 248.002ZM47.9561 248.033C45.92 248.158 44.0084 249.055 42.6109 250.541C41.2134 252.027 40.4353 253.99 40.4353 256.03C40.4353 258.07 41.2134 260.033 42.6109 261.519C44.0084 263.005 45.92 263.903 47.9561 264.028H63.9816C65.0339 264.028 66.0758 263.821 67.048 263.418C68.0201 263.015 68.9035 262.425 69.6475 261.681C70.3916 260.937 70.9818 260.054 71.3845 259.081C71.7871 258.109 71.9944 257.067 71.9944 256.015C71.9944 254.963 71.7871 253.921 71.3845 252.949C70.9818 251.977 70.3916 251.093 69.6475 250.349C68.9035 249.605 68.0201 249.015 67.048 248.612C66.0758 248.21 65.0339 248.002 63.9816 248.002L47.9561 248.033ZM95.9722 248.033C93.9361 248.158 92.0244 249.055 90.6269 250.541C89.2295 252.027 88.4514 253.99 88.4514 256.03C88.4514 258.07 89.2295 260.033 90.6269 261.519C92.0244 263.005 93.9361 263.903 95.9722 264.028H111.998C113.05 264.028 114.092 263.821 115.064 263.418C116.036 263.015 116.92 262.425 117.664 261.681C118.408 260.937 118.998 260.054 119.401 259.081C119.803 258.109 120.01 257.067 120.01 256.015C120.01 254.963 119.803 253.921 119.401 252.949C118.998 251.977 118.408 251.093 117.664 250.349C116.92 249.605 116.036 249.015 115.064 248.612C114.092 248.21 113.05 248.002 111.998 248.002L95.9722 248.033ZM47.9561 295.988C45.92 296.113 44.0084 297.011 42.6109 298.497C41.2134 299.983 40.4353 301.946 40.4353 303.986C40.4353 306.026 41.2134 307.989 42.6109 309.475C44.0084 310.961 45.92 311.858 47.9561 311.983H63.9816C66.1067 311.983 68.1448 311.139 69.6475 309.637C71.1502 308.134 71.9944 306.096 71.9944 303.971C71.9944 301.846 71.1502 299.807 69.6475 298.305C68.1448 296.802 66.1067 295.958 63.9816 295.958L47.9561 295.988ZM95.9722 295.988C93.9361 296.113 92.0244 297.011 90.6269 298.497C89.2295 299.983 88.4514 301.946 88.4514 303.986C88.4514 306.026 89.2295 307.989 90.6269 309.475C92.0244 310.961 93.9361 311.858 95.9722 311.983H111.998C114.123 311.983 116.161 311.139 117.664 309.637C119.166 308.134 120.01 306.096 120.01 303.971C120.01 301.846 119.166 299.807 117.664 298.305C116.161 296.802 114.123 295.958 111.998 295.958L95.9722 295.988ZM143.988 295.988C142.897 295.921 141.803 296.078 140.774 296.45C139.746 296.821 138.804 297.399 138.007 298.149C137.21 298.898 136.575 299.802 136.141 300.806C135.707 301.81 135.483 302.892 135.483 303.986C135.483 305.079 135.707 306.162 136.141 307.166C136.575 308.169 137.21 309.074 138.007 309.823C138.804 310.572 139.746 311.15 140.774 311.522C141.803 311.894 142.897 312.051 143.988 311.983H151.971C154.096 311.983 156.134 311.139 157.637 309.637C159.139 308.134 159.984 306.096 159.984 303.971C159.984 301.846 159.139 299.807 157.637 298.305C156.134 296.802 154.096 295.958 151.971 295.958L143.988 295.988ZM47.9561 344.004C45.92 344.129 44.0084 345.027 42.6109 346.513C41.2134 347.999 40.4353 349.962 40.4353 352.002C40.4353 354.042 41.2134 356.005 42.6109 357.491C44.0084 358.977 45.92 359.874 47.9561 360H63.9816C65.0339 360 66.0758 359.792 67.048 359.39C68.0201 358.987 68.9035 358.397 69.6475 357.653C70.3916 356.909 70.9818 356.025 71.3845 355.053C71.7871 354.081 71.9944 353.039 71.9944 351.987C71.9944 350.934 71.7871 349.893 71.3845 348.92C70.9818 347.948 70.3916 347.065 69.6475 346.321C68.9035 345.577 68.0201 344.987 67.048 344.584C66.0758 344.181 65.0339 343.974 63.9816 343.974L47.9561 344.004ZM95.9722 344.004C93.9361 344.129 92.0244 345.027 90.6269 346.513C89.2295 347.999 88.4514 349.962 88.4514 352.002C88.4514 354.042 89.2295 356.005 90.6269 357.491C92.0244 358.977 93.9361 359.874 95.9722 360H111.998C113.05 360 114.092 359.792 115.064 359.39C116.036 358.987 116.92 358.397 117.664 357.653C118.408 356.909 118.998 356.025 119.401 355.053C119.803 354.081 120.01 353.039 120.01 351.987C120.01 350.934 119.803 349.893 119.401 348.92C118.998 347.948 118.408 347.065 117.664 346.321C116.92 345.577 116.036 344.987 115.064 344.584C114.092 344.181 113.05 343.974 111.998 343.974L95.9722 344.004Z" fill="#F5FAFF"/>
<path d="M143.989 344.005C142.898 343.938 141.804 344.095 140.775 344.466C139.746 344.838 138.805 345.416 138.008 346.165C137.211 346.914 136.576 347.819 136.142 348.823C135.708 349.827 135.484 350.909 135.484 352.002C135.484 353.096 135.708 354.178 136.142 355.182C136.576 356.186 137.211 357.09 138.008 357.84C138.805 358.589 139.746 359.167 140.775 359.539C141.804 359.91 142.898 360.067 143.989 360H160.015C162.14 360 164.178 359.156 165.681 357.653C167.183 356.151 168.027 354.112 168.027 351.987C168.027 349.862 167.183 347.824 165.681 346.321C164.178 344.819 162.14 343.975 160.015 343.975L143.989 344.005Z" fill="#EAEDF5"/>
<path d="M47.9563 392.02C45.9202 392.146 44.0086 393.043 42.6111 394.529C41.2136 396.015 40.4355 397.978 40.4355 400.018C40.4355 402.058 41.2136 404.021 42.6111 405.507C44.0086 406.993 45.9202 407.891 47.9563 408.016H63.9818C66.1069 408.016 68.145 407.172 69.6477 405.669C71.1504 404.166 71.9946 402.128 71.9946 400.003C71.9946 397.878 71.1504 395.84 69.6477 394.337C68.145 392.834 66.1069 391.99 63.9818 391.99L47.9563 392.02Z" fill="#F5FAFF"/>
<path d="M95.9719 392.02C93.9358 392.146 92.0242 393.043 90.6267 394.529C89.2292 396.015 88.4512 397.978 88.4512 400.018C88.4512 402.058 89.2292 404.021 90.6267 405.507C92.0242 406.993 93.9358 407.891 95.9719 408.016H111.997C114.123 408.016 116.161 407.172 117.663 405.669C119.166 404.166 120.01 402.128 120.01 400.003C120.01 397.878 119.166 395.84 117.663 394.337C116.161 392.834 114.123 391.99 111.997 391.99L95.9719 392.02ZM143.988 392.02C142.896 391.953 141.803 392.11 140.774 392.482C139.745 392.853 138.804 393.432 138.007 394.181C137.21 394.93 136.575 395.835 136.141 396.838C135.707 397.842 135.483 398.924 135.483 400.018C135.483 401.112 135.707 402.194 136.141 403.198C136.575 404.202 137.21 405.106 138.007 405.855C138.804 406.605 139.745 407.183 140.774 407.554C141.803 407.926 142.896 408.083 143.988 408.016H160.014C162.139 408.016 164.177 407.172 165.679 405.669C167.182 404.166 168.026 402.128 168.026 400.003C168.026 397.878 167.182 395.84 165.679 394.337C164.177 392.834 162.139 391.99 160.014 391.99L143.988 392.02ZM192.004 392.02C190.912 391.953 189.819 392.11 188.79 392.482C187.761 392.853 186.82 393.432 186.023 394.181C185.226 394.93 184.591 395.835 184.157 396.838C183.723 397.842 183.499 398.924 183.499 400.018C183.499 401.112 183.723 402.194 184.157 403.198C184.591 404.202 185.226 405.106 186.023 405.855C186.82 406.605 187.761 407.183 188.79 407.554C189.819 407.926 190.912 408.083 192.004 408.016H208.03C210.155 408.016 212.193 407.172 213.695 405.669C215.198 404.166 216.042 402.128 216.042 400.003C216.042 397.878 215.198 395.84 213.695 394.337C212.193 392.834 210.155 391.99 208.03 391.99L192.004 392.02Z" fill="#EAEDF5"/>
</g>
<defs>
<clipPath id="clip0_1171_14709">
<rect width="512" height="512" fill="white"/>
</clipPath>
</defs>
</svg>
