<svg width="512" height="512" viewBox="0 0 512 512" fill="none" xmlns="http://www.w3.org/2000/svg">
<g clip-path="url(#clip0_1171_14684)">
<path d="M256 0H128.07V71.94L256 69.33L268.765 34.665L256 0Z" fill="#8276E3"/>
<path d="M512 0V64.12L256 69.33V0H512Z" fill="#685EB5"/>
<path d="M95.896 0.00195312H0V63.985L95.896 71.962V0.00195312Z" fill="#8276E3"/>
<path d="M268.765 126.436L256 63.9802L191.95 63.9402C174.3 63.9302 160 49.6202 160 31.9702C159.85 14.0272 145.087 -0.0627896 128.07 0.00021044H95.9C78.27 0.0402104 64 14.3402 64 31.9702V31.9902C64 49.6302 49.71 63.9402 32.07 63.9602L0 63.9802V383.999H256L268.765 126.436Z" fill="#524A8F"/>
<path d="M512 64.1205V383.999H256V63.9805L512 64.1205Z" fill="#342C6E"/>
<path d="M60.25 114.48H90.25V144.48H60.25V114.48Z" fill="#FFEB00"/>
<path d="M120.5 114.48H210.75V144.48H120.5V114.48Z" fill="#0DFF92"/>
<path d="M256.001 114.479L264.239 129.48L256.001 144.479H241.004V114.479H256.001Z" fill="#FF7FAB"/>
<path d="M256 114.479H271.003V144.479H256V114.479Z" fill="#FF5B93"/>
<path d="M301.25 114.48H391.5V144.48H301.25V114.48Z" fill="#2FD498"/>
<path d="M421.75 114.48H451.75V144.48H421.75V114.48Z" fill="#FFBB00"/>
<path d="M60.25 174.59H150.5V204.59H60.25V174.59Z" fill="#FF7FAB"/>
<path d="M361.5 174.59H451.75V204.59H361.5V174.59Z" fill="#FFBB00"/>
<path d="M256.001 174.59L273.659 190.555L256.001 204.59H180.754V174.59H256.001Z" fill="#9BCFFF"/>
<path d="M256 174.59H331.252V204.59H256V174.59Z" fill="#32A7FF"/>
<path d="M268.766 364.028L256.001 255.998H255.951L187.251 256.008C148.851 256.008 114.541 279.958 101.311 315.998L57.2106 436.178C43.8816 471.944 70.5016 512.142 110.151 511.998C134.491 511.998 156.081 496.388 163.701 473.278L169.671 455.188L211.101 421.978H256.001L268.766 364.028Z" fill="#F5FAFF"/>
<path d="M401.801 511.998C378.307 512.051 355.854 496.654 348.231 473.268L342.271 455.188L300.871 421.978H256V255.998L324.69 256.008C363.08 256.008 397.4 279.958 410.63 315.998L454.75 436.138C468.281 472.958 441.031 511.998 401.801 511.998Z" fill="#EAEDF5"/>
<path d="M256 349.029L263.495 364.029L256 379.029H240.99V349.029H256Z" fill="#EAEDF5"/>
<path d="M256 349.029H270.99V379.029H256V349.029Z" fill="#CFD3E7"/>
<path d="M217.501 315.941H197.742V296.182H167.742V315.941H147.982V345.941H167.742V365.701H197.742V345.941H217.501V315.941Z" fill="#FF7FAB"/>
<path d="M363.99 315.941H344.23V296.182H314.23V315.941H294.471V345.941H314.23V365.701H344.23V345.941H363.99V315.941Z" fill="#32A7FF"/>
<path d="M366.709 423.925C366.709 442.107 351.97 456.846 333.788 456.846C315.606 456.846 300.867 442.107 300.867 423.925C300.867 405.743 315.606 391.004 333.788 391.004C351.97 391.004 366.709 405.743 366.709 423.925Z" fill="#342C6E"/>
<path d="M178.183 456.846C196.364 456.846 211.104 442.107 211.104 423.925C211.104 405.743 196.364 391.004 178.183 391.004C160.001 391.004 145.262 405.743 145.262 423.925C145.262 442.107 160.001 456.846 178.183 456.846Z" fill="#524A8F"/>
</g>
<defs>
<clipPath id="clip0_1171_14684">
<rect width="512" height="512" fill="white"/>
</clipPath>
</defs>
</svg>
