<svg width="512" height="512" viewBox="0 0 512 512" fill="none" xmlns="http://www.w3.org/2000/svg">
<path d="M439.039 106.667H341.333V54.614C341.333 36.2673 326.399 21.334 308.053 21.334H75.946C57.5993 21.334 42.666 36.2673 42.666 54.614V457.387C42.666 475.734 57.5993 490.667 75.946 490.667H308.053C326.399 490.667 341.333 475.734 341.333 457.387V405.334H439.039C455.679 405.334 469.333 391.681 469.333 375.041V136.961C469.333 120.321 455.679 106.667 439.039 106.667ZM249.386 42.6673L238.719 64.0007H145.279L134.613 42.6673H249.386ZM319.999 457.387C319.999 464.001 314.666 469.334 308.053 469.334H75.946C72.7776 469.334 69.7389 468.075 67.4984 465.835C65.258 463.594 63.9993 460.556 63.9993 457.387V448.001H319.999V457.387ZM319.999 426.667H63.9993V54.614C63.9993 48.0007 69.3327 42.6673 75.946 42.6673H110.719L129.066 79.3607C130.986 82.9873 134.613 85.334 138.666 85.334H245.333C249.386 85.334 253.013 82.9873 254.933 79.3607L273.279 42.6673H308.053C314.666 42.6673 319.999 48.0007 319.999 54.614V106.667H179.626C162.986 106.667 149.333 120.321 149.333 136.961V375.041C149.333 391.681 162.986 405.334 179.626 405.334H319.999V426.667ZM447.999 375.041C447.999 379.947 443.946 384.001 439.039 384.001H179.626C174.719 384.001 170.666 379.947 170.666 375.041V136.961C170.666 132.054 174.719 128.001 179.626 128.001H302.719L316.159 154.667C321.066 164.481 330.879 170.667 341.973 170.667H447.999V375.041ZM447.999 149.334H341.973C338.986 149.334 336.426 147.627 335.146 145.067L326.613 128.001H439.039C443.946 128.001 447.999 132.054 447.999 136.961V149.334Z" fill="#342C6E"/>
<path d="M341.973 170.667C330.879 170.667 321.066 164.48 316.159 154.667L302.719 128H179.626C174.719 128 170.666 132.053 170.666 136.96V375.04C170.666 379.947 174.719 384 179.626 384H439.039C443.946 384 447.999 379.947 447.999 375.04V170.667H341.973ZM323.199 210.133C318.933 206.08 318.933 199.253 323.199 195.2C327.253 190.933 334.079 190.933 338.133 195.2L359.466 216.533C363.733 220.587 363.733 227.413 359.466 231.467L338.133 252.8C334.079 257.067 327.253 257.067 323.199 252.8C318.933 248.747 318.933 241.92 323.199 237.867L336.853 224L323.199 210.133ZM292.693 193.067C298.026 195.84 300.159 202.24 297.599 207.36L276.266 250.027C273.493 255.36 267.093 257.493 261.973 254.933C259.447 253.667 257.518 251.461 256.601 248.788C255.684 246.116 255.851 243.191 257.066 240.64L278.399 197.973C281.173 192.64 287.573 190.507 292.693 193.067ZM266.666 149.333C272.639 149.333 277.333 154.027 277.333 160C277.333 165.973 272.639 170.667 266.666 170.667C260.693 170.667 255.999 165.973 255.999 160C255.999 154.027 260.693 149.333 266.666 149.333ZM223.999 149.333C229.973 149.333 234.666 154.027 234.666 160C234.666 165.973 229.973 170.667 223.999 170.667C218.026 170.667 213.333 165.973 213.333 160C213.333 154.027 218.026 149.333 223.999 149.333ZM195.199 216.533L216.533 195.2C220.586 190.933 227.413 190.933 231.466 195.2C235.733 199.253 235.733 206.08 231.466 210.133L217.813 224L231.466 237.867C235.733 241.92 235.733 248.747 231.466 252.8C227.413 257.067 220.586 257.067 216.533 252.8L195.199 231.467C190.933 227.413 190.933 220.587 195.199 216.533ZM202.666 298.667H309.333C315.306 298.667 319.999 303.36 319.999 309.333C319.999 315.307 315.306 320 309.333 320H202.666C196.693 320 191.999 315.307 191.999 309.333C191.999 303.36 196.693 298.667 202.666 298.667ZM394.666 362.667H202.666C196.693 362.667 191.999 357.973 191.999 352C191.999 346.027 196.693 341.333 202.666 341.333H394.666C400.639 341.333 405.333 346.027 405.333 352C405.333 357.973 400.639 362.667 394.666 362.667Z" fill="white"/>
<path d="M149.333 136.961V375.041C149.333 391.681 162.987 405.335 179.627 405.335H320V426.668H64V54.6146C64 48.0013 69.3333 42.668 75.9467 42.668H110.72L129.067 79.3613C130.987 82.988 134.613 85.3346 138.667 85.3346H245.333C249.387 85.3346 253.013 82.988 254.933 79.3613L273.28 42.668H308.053C314.667 42.668 320 48.0013 320 54.6146V106.668H179.627C162.987 106.668 149.333 120.321 149.333 136.961Z" fill="white"/>
<path d="M320 448.001V457.388C320 464.001 314.667 469.335 308.053 469.335H75.9467C72.7782 469.335 69.7395 468.076 67.4991 465.836C65.2587 463.595 64 460.556 64 457.388V448.001H320ZM448 136.961V149.335H341.973C338.987 149.335 336.427 147.628 335.147 145.068L326.613 128.001H439.04C443.947 128.001 448 132.055 448 136.961ZM249.387 42.668L238.72 64.0013H145.28L134.613 42.668H249.387Z" fill="#8276E3"/>
<path d="M231.467 237.868C235.733 241.921 235.733 248.748 231.467 252.801C227.413 257.068 220.587 257.068 216.533 252.801L195.2 231.468C190.933 227.415 190.933 220.588 195.2 216.535L216.533 195.201C220.587 190.935 227.413 190.935 231.467 195.201C235.733 199.255 235.733 206.081 231.467 210.135L217.813 224.001L231.467 237.868ZM297.6 207.361L276.267 250.028C273.493 255.361 267.093 257.495 261.973 254.935C259.448 253.668 257.519 251.462 256.602 248.79C255.684 246.117 255.851 243.192 257.067 240.641L278.4 197.975C281.173 192.641 287.573 190.508 292.693 193.068C298.027 195.841 300.16 202.241 297.6 207.361ZM359.467 231.468L338.133 252.801C334.08 257.068 327.253 257.068 323.2 252.801C318.933 248.748 318.933 241.921 323.2 237.868L336.853 224.001L323.2 210.135C318.933 206.081 318.933 199.255 323.2 195.201C327.253 190.935 334.08 190.935 338.133 195.201L359.467 216.535C363.733 220.588 363.733 227.415 359.467 231.468ZM320 309.335C320 315.308 315.307 320.001 309.333 320.001H202.667C196.693 320.001 192 315.308 192 309.335C192 303.361 196.693 298.668 202.667 298.668H309.333C315.307 298.668 320 303.361 320 309.335ZM405.333 352.001C405.333 357.975 400.64 362.668 394.667 362.668H202.667C196.693 362.668 192 357.975 192 352.001C192 346.028 196.693 341.335 202.667 341.335H394.667C400.64 341.335 405.333 346.028 405.333 352.001Z" fill="#342C6E"/>
<path d="M266.667 170.667C272.558 170.667 277.333 165.892 277.333 160.001C277.333 154.11 272.558 149.334 266.667 149.334C260.776 149.334 256 154.11 256 160.001C256 165.892 260.776 170.667 266.667 170.667Z" fill="#342C6E"/>
<path d="M224.001 170.667C229.892 170.667 234.667 165.892 234.667 160.001C234.667 154.11 229.892 149.334 224.001 149.334C218.11 149.334 213.334 154.11 213.334 160.001C213.334 165.892 218.11 170.667 224.001 170.667Z" fill="#342C6E"/>
</svg>
