<svg width="512" height="512" viewBox="0 0 512 512" fill="none" xmlns="http://www.w3.org/2000/svg">
<path d="M366.079 47.3214V464.679C366.079 486.633 348.392 504.243 326.593 504.243H70.9035C49.1047 504.243 31.3398 486.633 31.3398 464.679V47.3214C31.3398 25.4451 49.1047 7.75781 70.9035 7.75781H326.593C348.392 7.75781 366.079 25.4451 366.079 47.3214Z" fill="#342C6E"/>
<path d="M338.463 55.2349V456.845C338.463 463.516 335.127 469.412 330.007 472.98C326.827 475.308 322.87 476.626 318.681 476.626H78.817C73.5768 476.606 68.5571 474.515 64.8517 470.81C61.1463 467.105 59.0556 462.085 59.0352 456.845V55.2349C59.0352 44.3743 67.9564 35.4531 78.817 35.4531H174.545C177.959 35.4531 180.752 38.2459 180.752 41.6592C180.752 48.7186 184.553 55.5452 190.604 58.6483C191.922 59.424 193.319 59.8895 194.793 60.1998C197.395 60.8139 200.104 60.8139 202.705 60.1998C211.161 58.4931 216.747 50.2701 216.747 41.6592C216.747 40.418 217.135 39.2543 217.833 38.2458V38.1683C218.401 37.3333 219.164 36.6495 220.056 36.1764C220.949 35.7032 221.943 35.4549 222.953 35.4531H318.681C329.542 35.4531 338.463 44.3743 338.463 55.2349Z" fill="white"/>
<path d="M212.712 142.508V157.713C212.712 158.876 211.858 159.885 210.695 159.962L200.145 161.048C198.671 161.203 197.429 162.29 197.119 163.763C196.964 164.306 196.886 164.772 196.809 165.005C196.033 168.03 194.947 170.9 193.628 173.616C193.163 174.624 192.62 175.633 192.154 176.563C191.922 176.951 191.766 177.339 191.534 177.727C190.835 178.968 190.991 180.52 191.844 181.683L198.438 189.751C199.136 190.682 199.058 192.001 198.283 192.777L187.5 203.482C187.115 203.897 186.583 204.145 186.018 204.174C185.453 204.203 184.899 204.011 184.474 203.637L180.363 200.302L176.639 197.276C176.081 196.815 175.393 196.538 174.671 196.482C173.949 196.427 173.228 196.596 172.605 196.966C169.657 198.673 164.072 201.698 159.65 202.706C159.34 202.784 158.874 202.862 158.254 203.017C156.78 203.405 155.771 204.646 155.616 206.042L154.53 215.972C154.456 216.521 154.189 217.025 153.777 217.395C153.365 217.765 152.834 217.975 152.28 217.989H136.688C135.679 217.989 134.903 217.291 134.826 216.282L133.74 206.12C133.681 205.4 133.393 204.718 132.918 204.174C132.444 203.629 131.807 203.251 131.102 203.094C131.102 203.094 131.025 203.094 130.947 203.017C130.094 202.784 129.24 202.551 128.465 202.319C124.373 201.008 120.444 199.238 116.751 197.043C116.123 196.66 115.393 196.477 114.659 196.519C113.924 196.56 113.22 196.825 112.639 197.276L104.804 203.56C103.873 204.258 102.554 204.18 101.778 203.405L90.9955 192.699C90.6006 192.303 90.3664 191.775 90.3377 191.216C90.3091 190.658 90.4881 190.108 90.8403 189.674L97.3567 181.606C98.2876 180.52 98.4427 178.891 97.667 177.727L97.0464 176.563L95.65 173.771C94.7191 171.909 93.9433 169.97 93.3227 167.953L92.3918 164.927C92.3142 164.617 92.2367 164.151 92.0815 163.686C91.9282 162.972 91.553 162.325 91.0096 161.837C90.4662 161.349 89.7823 161.046 89.0561 160.971L78.5058 159.885C77.9469 159.836 77.4275 159.576 77.053 159.158C76.6785 158.74 76.4768 158.196 76.4888 157.635V142.43C76.4888 141.266 77.3421 140.336 78.5058 140.18L84.1688 139.637L89.5215 139.094C90.2322 139.009 90.9007 138.712 91.4402 138.241C91.9798 137.771 92.3654 137.149 92.547 136.457C93.8658 131.725 95.8052 127.303 98.21 123.114C98.9858 121.873 98.8306 120.243 97.8997 119.157L90.7627 110.391C90.4277 109.95 90.2595 109.404 90.2879 108.85C90.3163 108.297 90.5394 107.771 90.9179 107.366L101.701 96.5828C102.477 95.8071 103.795 95.7295 104.726 96.4277L113.725 103.72C114.889 104.651 116.518 104.806 117.759 104.03C118.612 103.565 119.388 103.099 120.242 102.711C120.785 102.479 121.328 102.168 121.871 101.936C124.741 100.617 127.689 99.5307 130.792 98.755C132.188 98.3671 133.197 97.1259 133.429 95.6519L134.671 84.0931C134.748 83.0071 135.757 82.0762 136.92 82.0762H152.125C152.679 82.0897 153.209 82.3002 153.622 82.6699C154.034 83.0396 154.301 83.5443 154.375 84.0931L155.616 95.7295C155.771 97.2034 156.78 98.4447 158.254 98.8325C161.716 99.703 165.072 100.952 168.261 102.556C168.804 102.866 170.123 103.565 171.286 104.263C172.528 104.961 174.079 104.806 175.243 103.953C178.346 101.393 184.319 96.6604 184.319 96.6604C185.25 95.9622 186.569 96.0398 187.345 96.8156L198.128 107.599C198.981 108.452 199.058 109.693 198.283 110.624L191.146 119.39C190.676 119.962 190.4 120.669 190.359 121.408C190.317 122.147 190.511 122.88 190.913 123.502C191.146 123.89 191.378 124.2 191.456 124.433C193.318 127.613 195.412 133.664 196.498 136.922C196.964 138.241 198.128 139.172 199.446 139.327L204.954 139.637L210.617 140.258C211.858 140.413 212.712 141.344 212.712 142.508Z" fill="#FC8068"/>
<path d="M321.085 211.472V225.048C321.085 226.056 320.31 226.987 319.301 227.065L309.914 228.073C308.596 228.228 307.51 229.237 307.199 230.478C307.044 230.944 306.967 231.331 306.889 231.642C306.191 234.357 305.26 236.839 304.096 239.322C303.708 240.253 303.243 241.106 302.777 241.959C302.622 242.347 302.39 242.658 302.234 242.968C301.614 244.131 301.691 245.45 302.545 246.459L308.363 253.596C308.984 254.371 308.906 255.535 308.208 256.311L298.588 265.853C297.89 266.628 296.727 266.628 295.873 266.008L292.227 263.06L288.891 260.345C288.398 259.933 287.786 259.688 287.145 259.647C286.504 259.605 285.866 259.768 285.323 260.112C282.685 261.664 277.72 264.379 273.764 265.232C273.531 265.31 273.066 265.387 272.523 265.542C271.204 265.853 270.273 266.939 270.196 268.258L269.265 277.101C269.11 278.11 268.256 278.885 267.248 278.885H253.362C252.508 278.885 251.81 278.265 251.655 277.334L250.724 268.258C250.656 267.623 250.397 267.023 249.982 266.539C249.566 266.054 249.014 265.707 248.397 265.542C248.397 265.542 248.319 265.542 248.242 265.465C247.466 265.31 246.69 265.077 245.992 264.844C242.346 263.681 238.855 262.129 235.597 260.19C235.04 259.845 234.39 259.682 233.737 259.723C233.083 259.765 232.459 260.009 231.951 260.422L225.047 266.008C224.271 266.628 223.107 266.551 222.331 265.853L212.712 256.311C211.936 255.535 211.936 254.371 212.557 253.596L218.297 246.459C219.151 245.45 219.228 244.054 218.608 242.968L218.065 241.882C217.677 241.106 217.211 240.253 216.824 239.399C216.048 237.693 215.35 235.986 214.729 234.202C214.419 233.271 214.186 232.418 213.953 231.487C213.876 231.254 213.798 230.788 213.643 230.323C213.509 229.684 213.172 229.105 212.683 228.671C212.194 228.238 211.579 227.974 210.928 227.918L201.541 226.91C201.043 226.864 200.58 226.63 200.248 226.255C199.917 225.881 199.741 225.393 199.757 224.893V211.317C199.757 210.308 200.533 209.455 201.541 209.3L206.584 208.757L211.316 208.291C212.634 208.136 213.643 207.205 214.031 205.964C215.194 201.775 216.901 197.819 219.073 194.095C219.771 193.009 219.616 191.535 218.84 190.527L212.479 182.691C211.859 181.916 211.936 180.752 212.634 179.976L222.254 170.357C222.952 169.659 224.116 169.581 224.969 170.202L233.037 176.718C234.045 177.571 235.519 177.649 236.605 176.951C237.381 176.563 238.079 176.175 238.777 175.787L240.174 175.089C242.734 173.925 245.371 172.995 248.164 172.219C248.786 172.037 249.339 171.675 249.753 171.177C250.168 170.68 250.425 170.07 250.491 169.426L251.577 159.108C251.655 158.1 252.508 157.324 253.594 157.324H267.17C268.179 157.324 269.032 158.1 269.187 159.108L270.273 169.426C270.428 170.745 271.282 171.831 272.6 172.141C275.316 172.839 278.031 173.848 280.513 175.011L281.444 175.477C281.987 175.71 283.151 176.408 284.159 176.951C285.323 177.571 286.642 177.494 287.65 176.641L295.718 170.124C296.494 169.504 297.657 169.581 298.433 170.279L308.053 179.899C308.828 180.675 308.828 181.761 308.208 182.614L301.847 190.449C300.993 191.458 300.916 192.931 301.614 194.095C301.769 194.405 302.002 194.716 302.079 194.948C303.708 197.819 305.648 203.171 306.579 206.042C306.967 207.205 307.975 208.059 309.216 208.136L314.104 208.679L319.301 209.455C320.31 209.61 321.085 210.464 321.085 211.472Z" fill="#FCD131"/>
<path d="M144.523 178.346C160.118 178.346 172.76 165.704 172.76 150.109C172.76 134.513 160.118 121.871 144.523 121.871C128.928 121.871 116.285 134.513 116.285 150.109C116.285 165.704 128.928 178.346 144.523 178.346Z" fill="white"/>
<path d="M260.499 246.458C276.094 246.458 288.737 233.815 288.737 218.22C288.737 202.625 276.094 189.982 260.499 189.982C244.904 189.982 232.262 202.625 232.262 218.22C232.262 233.815 244.904 246.458 260.499 246.458Z" fill="white"/>
<path d="M314.337 318.603H87.4276C84.247 318.603 81.6094 315.966 81.6094 312.785C81.6094 309.604 84.247 306.967 87.4276 306.967H314.337C317.517 306.967 320.155 309.604 320.155 312.785C320.155 315.966 317.517 318.603 314.337 318.603ZM302.855 349.168H98.8312C95.6506 349.168 93.013 346.53 93.013 343.35C93.013 340.169 95.6506 337.532 98.8312 337.532H302.855C306.036 337.532 308.674 340.169 308.674 343.35C308.674 346.53 306.036 349.168 302.855 349.168ZM275.006 379.733H126.681C123.5 379.733 120.863 377.095 120.863 373.915C120.863 370.734 123.5 368.097 126.681 368.097H275.006C278.186 368.097 280.824 370.734 280.824 373.915C280.824 377.095 278.186 379.733 275.006 379.733Z" fill="#E5E5E5"/>
<path d="M257.938 430.778C257.938 437.061 255.378 442.802 251.189 446.991C247.077 451.18 241.337 453.74 234.975 453.74H162.597C149.952 453.74 139.635 443.423 139.635 430.778C139.635 424.417 142.195 418.676 146.384 414.564C150.495 410.375 156.236 407.815 162.597 407.815H234.975C247.698 407.815 257.938 418.055 257.938 430.778ZM480.658 96.4263C480.658 139.636 439.232 174.7 388.265 174.7C376.086 174.7 364.527 172.761 353.899 169.115C352.839 168.736 351.706 168.608 350.588 168.743C349.471 168.878 348.4 169.27 347.46 169.891C341.875 173.614 335.358 177.648 328.221 181.217C321.938 184.397 315.266 177.726 318.369 171.442C320.231 167.563 322.171 163.374 323.8 159.03C324.329 157.609 324.412 156.06 324.038 154.591C323.664 153.121 322.85 151.801 321.705 150.807C305.724 136.688 295.872 117.527 295.872 96.4263C295.872 53.139 337.22 18.1523 388.265 18.1523C439.232 18.1523 480.658 53.139 480.658 96.4263Z" fill="#8276E3"/>
<path d="M408.591 145.377C407.829 145.303 407.091 145.072 406.424 144.698C405.756 144.324 405.173 143.815 404.712 143.205C403.746 142.011 403.293 140.483 403.453 138.956C403.613 137.428 404.373 136.027 405.566 135.059L423.02 121.018L408.979 103.564C408.468 102.977 408.08 102.293 407.839 101.553C407.597 100.813 407.508 100.032 407.575 99.2561C407.642 98.4806 407.865 97.7267 408.23 97.0392C408.595 96.3517 409.095 95.7449 409.7 95.2548C410.305 94.7647 411.002 94.4015 411.75 94.1869C412.498 93.9722 413.282 93.9105 414.055 94.0054C414.827 94.1003 415.573 94.3498 416.247 94.7392C416.921 95.1285 417.51 95.6496 417.978 96.2715L435.665 118.225C436.596 119.389 437.061 120.941 436.906 122.492C436.751 124.044 435.975 125.44 434.734 126.371L412.78 144.058C412.218 144.566 411.552 144.947 410.829 145.174C410.106 145.402 409.343 145.471 408.591 145.377ZM362.278 106.046C361.517 105.972 360.779 105.741 360.111 105.367C359.443 104.993 358.861 104.485 358.4 103.874L340.712 81.92C339.746 80.7263 339.293 79.1979 339.453 77.6707C339.613 76.1434 340.373 74.7421 341.566 73.7745L363.52 56.0872C364.106 55.5759 364.79 55.1881 365.53 54.9469C366.27 54.7057 367.052 54.6161 367.827 54.6834C368.602 54.7507 369.356 54.9735 370.044 55.3386C370.731 55.7036 371.338 56.2035 371.828 56.8082C372.318 57.413 372.682 58.1102 372.896 58.8584C373.111 59.6066 373.173 60.3904 373.078 61.163C372.983 61.9356 372.733 62.6811 372.344 63.3551C371.955 64.0292 371.433 64.6178 370.812 65.086L353.357 79.1272L367.398 96.5818C369.415 99.0642 369.027 102.71 366.545 104.727C365.304 105.813 363.752 106.201 362.278 106.046ZM374.458 154.686C374.147 154.686 373.837 154.608 373.527 154.531C372.788 154.333 372.095 153.991 371.488 153.525C370.882 153.059 370.373 152.478 369.991 151.815C369.609 151.152 369.361 150.42 369.263 149.662C369.164 148.903 369.216 148.133 369.415 147.394L395.713 49.8036C396.115 48.312 397.092 47.0408 398.43 46.2697C399.769 45.4987 401.359 45.2909 402.85 45.6921C404.342 46.0933 405.613 47.0706 406.384 48.409C407.155 49.7475 407.363 51.3374 406.962 52.8291L380.664 150.419C379.888 153.212 377.25 154.996 374.458 154.686Z" fill="white"/>
</svg>
