<?xml version="1.0" encoding="utf-8"?>
<!-- Generator: Adobe Illustrator 26.4.1, SVG Export Plug-In . SVG Version: 6.00 Build 0)  -->
<svg version="1.1" id="Layer_1" xmlns="http://www.w3.org/2000/svg" xmlns:xlink="http://www.w3.org/1999/xlink" x="0px" y="0px"
	 viewBox="0 0 800 800" style="enable-background:new 0 0 800 800;" xml:space="preserve">
<style type="text/css">
	.st0{fill:#000066;}
</style>
<g>
	<path class="st0" d="M170.6,506.9h0.5v13h-3c-4.1,6.9-10.2,10.3-18.4,10.3H147v8.2c0,7.3-1.4,12.9-4.3,16.6
		c-1.8,2.3-3.8,4.2-6.4,5.4c-2.7,1.5-6,2.2-10,2.3v-13.1c6-1,7.6-2.8,7.6-9.5v-49.9c0-11.7,8.3-19.8,20.6-19.8h16L170.6,506.9
		L170.6,506.9z M147.1,517.1h3.4c4.8,0,7.1-2.6,7.1-8v-25.7h-3.4c-4.8,0-7.1,2.6-7.1,8V517.1z"/>
	<path class="st0" d="M170.6,506.9h16.1v-57.7h13v70.7h-29.1V506.9z"/>
	<path class="st0" d="M209.6,519.9v-70.7h13v57.7h0.9v13H209.6z"/>
	<path class="st0" d="M222.6,506.9h22.9c2.6,0,2.7-0.3,4.1-0.7c-2.2-7.2-6.1-14.1-12.3-19.2l6.4-15.7c5-0.7,9.4-1.1,13.5-1.1
		c13.6,0,20.3,5.1,20.3,15.4c0,6.5-3.3,13.5-9.5,21.1h10.1v13h-9.7c-6.8,0-7.7-0.1-11.1-1.5c-2.3,1.3-3.7,1.5-11.2,1.5h-23.3v-12.8
		H222.6z M259.2,497.8c3.6-4.2,5.6-7.4,5.6-9.9c0-3.3-2.8-4.8-8.8-4.9l-4.4,0.2C257,489,258.4,492.6,259.2,497.8z"/>
	<path class="st0" d="M277.3,506.9h16.1v-57.7h13v70.7h-29.1V506.9z"/>
	<path class="st0" d="M329.3,519.9h-13v-70.7h13V519.9z"/>
	<path class="st0" d="M446.9,519.9h-67.2c-11.9,0-19.9-8.3-19.9-20.6v-23.9h13v24.3c0,4.8,2.7,7.1,8.1,7.1h53v-36.6h13L446.9,519.9
		L446.9,519.9z M387.5,470.3h13.3v13h-13.3V470.3z M406.1,470.3h13v13h-13V470.3z"/>
	<path class="st0" d="M457,519.9v-70.7h13v57.7h0.9v13H457z"/>
	<path class="st0" d="M485.8,493.4v-22.6l28.5-21.4h21.6l-36.8,27.7v3.1h20.7c12,0,20.6,8.2,20.6,19.8v6.8h0.7v13h-71v-13h57.2v-5.5
		c0-5.4-2.4-8-7.2-8h-34.3V493.4z"/>
	<path class="st0" d="M540.3,506.9h16.1v-36.6h13v36.6h0.7v13h-29.8V506.9z M556.4,528.1h13v13.3h-13V528.1z"/>
	<path class="st0" d="M603.5,506.9V488h13v18.9h14.9v-27.7h13v27.7H659v-36.6h13v49.6H569.5v-13L603.5,506.9L603.5,506.9z
		 M622,449.8h13v13.3h-13V449.8z M631.5,431.3h13v13.3h-13V431.3z M640.7,449.8h13v13.3h-13V449.8z"/>
</g>
<g>
	<path class="st0" d="M226.3,560.3l-11,38.7H211l-9.8-33l-10,33l-4.2,0.1l-10.8-38.8h4.2l8.9,34l9.9-34h4.3l9.6,34l8.9-34H226.3z"/>
	<path class="st0" d="M241.7,597.6c-2.3-1.3-4.1-3.1-5.4-5.4c-1.3-2.3-2-5.1-2-8.2c0-3.1,0.7-5.9,2-8.2s3.1-4.2,5.4-5.4
		c2.3-1.3,4.9-1.9,7.7-1.9s5.4,0.6,7.7,1.9c2.3,1.3,4.1,3.1,5.4,5.4c1.3,2.3,2,5.1,2,8.2c0,3.1-0.7,5.8-2,8.2s-3.2,4.2-5.5,5.5
		c-2.3,1.3-4.9,1.9-7.8,1.9C246.5,599.5,243.9,598.8,241.7,597.6z M254.9,594.7c1.7-0.9,3.1-2.3,4.1-4.1c1.1-1.8,1.6-4.1,1.6-6.7
		s-0.5-4.9-1.6-6.7c-1-1.8-2.4-3.2-4.1-4.1c-1.7-0.9-3.5-1.4-5.5-1.4s-3.8,0.5-5.5,1.4s-3.1,2.3-4.1,4.1s-1.5,4.1-1.5,6.7
		s0.5,4.9,1.5,6.7s2.4,3.2,4,4.1c1.7,0.9,3.5,1.4,5.5,1.4S253.2,595.6,254.9,594.7z"/>
	<path class="st0" d="M283.3,569.8c1.8-1,3.9-1.6,6.5-1.6v4h-1.1c-2.8,0-5.1,0.8-6.8,2.3c-1.7,1.5-2.5,4-2.5,7.6V599h-3.9v-30.3h3.9
		v5.4C280.3,572.2,281.6,570.8,283.3,569.8z"/>
	<path class="st0" d="M303.4,558v41h-3.9v-41H303.4z"/>
	<path class="st0" d="M316.2,575.7c1.3-2.3,3-4.2,5.2-5.4c2.2-1.3,4.7-1.9,7.5-1.9c2.7,0,5.1,0.6,7.2,1.9c2.1,1.3,3.7,3,4.7,5V558
		h3.9v41h-3.9v-6.8c-0.9,2.1-2.4,3.8-4.5,5.2c-2.1,1.3-4.6,2-7.4,2s-5.3-0.6-7.5-1.9c-2.2-1.3-3.9-3.1-5.2-5.5
		c-1.2-2.4-1.9-5.1-1.9-8.2C314.3,580.7,314.9,578,316.2,575.7z M339.2,577.5c-1-1.8-2.4-3.3-4.1-4.3s-3.6-1.5-5.7-1.5
		s-4.1,0.5-5.8,1.4c-1.7,1-3,2.4-4,4.2s-1.5,4-1.5,6.5s0.5,4.6,1.5,6.5s2.3,3.3,4,4.3s3.6,1.5,5.8,1.5c2.1,0,4-0.5,5.7-1.5
		s3.1-2.4,4.1-4.3c1-1.8,1.5-4,1.5-6.4S340.2,579.3,339.2,577.5z"/>
	<path class="st0" d="M405.6,599h-3.9l-21.5-32.6V599h-3.9v-38.7h3.9l21.5,32.5v-32.5h3.9V599z"/>
	<path class="st0" d="M445.6,585.4h-25.1c0.1,2.3,0.7,4.2,1.7,5.9c1,1.6,2.3,2.9,3.9,3.7s3.4,1.2,5.3,1.2c2.5,0,4.6-0.6,6.3-1.8
		s2.9-2.9,3.4-4.9h4.1c-0.7,3-2.3,5.4-4.7,7.2c-2.4,1.9-5.5,2.8-9.1,2.8c-2.8,0-5.4-0.6-7.6-1.9c-2.3-1.3-4-3.1-5.3-5.4
		c-1.3-2.3-1.9-5.1-1.9-8.2c0-3.1,0.6-5.9,1.9-8.3c1.3-2.4,3-4.2,5.3-5.4c2.3-1.3,4.8-1.9,7.7-1.9c2.9,0,5.4,0.6,7.6,1.9
		c2.2,1.3,3.8,2.9,5,5.1s1.7,4.5,1.7,7.1C445.7,583.7,445.7,584.7,445.6,585.4z M440.4,576.5c-0.9-1.6-2.2-2.8-3.9-3.6
		c-1.6-0.8-3.4-1.2-5.3-1.2c-2.9,0-5.3,0.9-7.4,2.8s-3.2,4.5-3.4,7.8h21.3C441.8,580,441.4,578,440.4,576.5z"/>
	<path class="st0" d="M461.7,572v18.8c0,1.8,0.4,3.1,1.1,3.8s1.9,1.1,3.7,1.1h3.5v3.3h-4.2c-2.7,0-4.8-0.6-6.1-1.9
		c-1.3-1.3-2-3.4-2-6.3V572h-4.2v-3.3h4.2v-7.6h3.9v7.6h8.3v3.3H461.7z"/>
	<path class="st0" d="M520.2,568.8l-9.5,30.3h-3.9l-8.4-25.4l-8.4,25.4h-3.9l-9.5-30.3h3.9l7.5,26.3l8.5-26.3h3.9l8.4,26.4l7.5-26.4
		H520.2z"/>
	<path class="st0" d="M534.9,597.6c-2.3-1.3-4.1-3.1-5.4-5.4c-1.3-2.3-2-5.1-2-8.2c0-3.1,0.7-5.9,2-8.2s3.1-4.2,5.4-5.4
		c2.3-1.3,4.9-1.9,7.7-1.9s5.4,0.6,7.7,1.9c2.3,1.3,4.1,3.1,5.4,5.4c1.3,2.3,2,5.1,2,8.2c0,3.1-0.7,5.8-2,8.2s-3.2,4.2-5.5,5.5
		s-4.9,1.9-7.8,1.9S537.2,598.8,534.9,597.6z M548.2,594.7c1.7-0.9,3.1-2.3,4.1-4.1c1.1-1.8,1.6-4.1,1.6-6.7s-0.5-4.9-1.6-6.7
		c-1-1.8-2.4-3.2-4.1-4.1c-1.7-0.9-3.5-1.4-5.5-1.4s-3.8,0.5-5.5,1.4s-3.1,2.3-4.1,4.1s-1.5,4.1-1.5,6.7s0.5,4.9,1.5,6.7
		s2.4,3.2,4,4.1c1.7,0.9,3.5,1.4,5.5,1.4S546.5,595.6,548.2,594.7z"/>
	<path class="st0" d="M576.6,569.8c1.8-1,3.9-1.6,6.5-1.6v4H582c-2.8,0-5.1,0.8-6.8,2.3s-2.5,4-2.5,7.6V599h-3.9v-30.3h3.9v5.4
		C573.6,572.2,574.9,570.8,576.6,569.8z"/>
	<path class="st0" d="M609.1,599l-12.5-13.6V599h-3.9v-41h3.9v24.3l12.2-13.5h5.4l-14.4,15.1l14.5,15.2L609.1,599L609.1,599z"/>
	<path class="st0" d="M625.2,597.1c-2.2-1.6-3.4-3.8-3.7-6.6h4c0.2,1.7,1,3.1,2.4,4.1c1.4,1.1,3.3,1.6,5.7,1.6c2.1,0,3.8-0.5,5-1.5
		s1.8-2.2,1.8-3.7c0-1-0.3-1.9-1-2.6c-0.7-0.7-1.5-1.2-2.5-1.6c-1-0.4-2.4-0.8-4.1-1.2c-2.3-0.6-4.1-1.2-5.5-1.8s-2.6-1.5-3.6-2.6
		c-1-1.2-1.5-2.7-1.5-4.7c0-1.5,0.4-2.8,1.3-4.1c0.9-1.3,2.1-2.3,3.8-3c1.6-0.7,3.5-1.1,5.5-1.1c3.3,0,5.9,0.8,7.9,2.5
		s3.1,3.9,3.2,6.8H640c-0.1-1.8-0.8-3.2-2.1-4.3s-3-1.6-5.2-1.6c-2,0-3.5,0.5-4.8,1.4c-1.2,0.9-1.8,2.1-1.8,3.4
		c0,1.2,0.4,2.2,1.1,2.9c0.7,0.8,1.6,1.3,2.7,1.8c1.1,0.4,2.5,0.9,4.3,1.4c2.2,0.6,3.9,1.2,5.2,1.7c1.3,0.6,2.4,1.4,3.3,2.4
		c0.9,1.1,1.4,2.5,1.4,4.3c0,1.6-0.4,3.1-1.3,4.4c-0.9,1.3-2.1,2.3-3.7,3c-1.6,0.7-3.4,1.1-5.5,1.1
		C630.2,599.5,627.4,598.7,625.2,597.1z"/>
</g>
<path class="st0" d="M526.5,379.9c-7.5,0-15,0-23.4,0c0-3.5,0.1-6.8,0-10.2c-1.6-79.1-35.9-139.9-102.8-181.9
	c-27.5-17.3-58.1-26.2-90.5-28.9c-3.3-0.3-4.7,0.5-4.7,4c0.1,11.4,0.1,22.7,0,34.1c-0.1,3.5,1.6,4.1,4.6,4.5
	c61.6,7.8,106.8,39.3,134.7,94.8c12.6,25,18.6,58.4,15.9,83.5c-1.6,0.1-3.3,0.3-5,0.3c-26.5-0.1-53-0.3-79.5-0.2
	c-4.5,0-5.6-1.6-5.4-5.7c0.8-14.7-1.5-28.8-8.6-41.9c-11.6-21.3-29.2-34.8-53-39.9c-0.7-0.1-1.3-0.3-2-0.3c-0.3,0-0.6,0.2-1.5,0.5
	c-0.1,1.6-0.2,3.5-0.2,5.3c0,10.3,0.2,20.6-0.1,31c-0.1,4.4,1.2,6.6,5.2,8.7c14.3,7.6,21.1,23.9,16.9,39.5
	c-4,15.2-17.7,25.8-33.3,26c-16.2,0.2-30.1-10.4-34.3-26c-4.2-15.7,2.8-32.2,17.4-39.8c3.7-1.9,4.7-4,4.7-7.9
	c-0.2-18.7-0.1-37.5-0.1-56.2c0-1.8,0-3.7,0-5.5c54.1-6.8,105.6,31.9,112.7,88.1c13.8,0,27.6,0,42.3,0
	c-4.1-39.4-20.6-71.9-50.5-97.3c-29.8-25.4-64.8-35.8-104.1-33.8c0-30.2,0-59.9,0-89.6C412.9,125.4,535.3,239.3,526.5,379.9z
	 M293.6,379c6.2-0.1,11-5.1,10.8-11.3c-0.2-5.8-5.2-10.8-10.9-10.8c-6,0-11.2,5.2-11.1,11.2C282.4,374.2,287.4,379.1,293.6,379z"/>
<g>
	<path d="M326.9,618v-0.2c0.5-0.1,0.6-0.1,0.6-0.7v-1.7c0-0.5,0-0.6-0.5-0.7v-0.2c0.5-0.1,0.9-0.2,1.3-0.3v2.9
		c0,0.6,0.1,0.6,0.6,0.7v0.2H326.9z M327.4,613c0-0.3,0.2-0.5,0.5-0.5s0.5,0.2,0.5,0.5c0,0.2-0.2,0.5-0.5,0.5
		C327.6,613.4,327.4,613.2,327.4,613z"/>
	<path d="M331.8,618v-0.2c0.5-0.1,0.6-0.1,0.6-0.7v-1.4c0-0.6-0.2-1-0.8-1c-0.3,0-0.7,0.2-0.9,0.4v2c0,0.6,0,0.6,0.6,0.7v0.2h-1.9
		v-0.2c0.6-0.1,0.6-0.1,0.6-0.7v-1.7c0-0.6-0.1-0.6-0.5-0.7v-0.2c0.4-0.1,0.9-0.2,1.3-0.3v0.7c0.2-0.1,0.4-0.3,0.6-0.4
		c0.2-0.2,0.5-0.3,0.7-0.3c0.7,0,1.1,0.5,1.1,1.3v1.6c0,0.6,0.1,0.6,0.6,0.7v0.2H331.8z"/>
	<path d="M339.3,618.1c-0.2,0-0.4-0.1-0.4-0.2c-0.1-0.1-0.2-0.2-0.2-0.4c-0.4,0.2-0.8,0.5-1,0.5c-0.7,0-1.1-0.5-1.1-1.1
		c0-0.4,0.2-0.7,0.7-0.8c0.6-0.2,1.2-0.4,1.3-0.6v-0.2c0-0.6-0.3-0.9-0.7-0.9c-0.2,0-0.3,0.1-0.4,0.2c-0.1,0.1-0.2,0.3-0.3,0.6
		c-0.1,0.2-0.1,0.2-0.3,0.2c-0.2,0-0.4-0.2-0.4-0.4c0-0.1,0.1-0.2,0.3-0.4c0.3-0.2,0.8-0.5,1.3-0.6c0.3,0,0.5,0.1,0.7,0.2
		c0.3,0.3,0.4,0.6,0.4,1.1v1.5c0,0.4,0.2,0.5,0.3,0.5c0.1,0,0.2,0,0.3-0.1l0.1,0.2L339.3,618.1z M338.6,615.9
		c-0.2,0.1-0.5,0.3-0.7,0.3c-0.3,0.1-0.5,0.3-0.5,0.6c0,0.5,0.3,0.7,0.6,0.7c0.2,0,0.5-0.1,0.6-0.3V615.9z"/>
	<path d="M342.7,615.3c-0.2-0.5-0.5-0.9-0.9-0.9c-0.3,0-0.5,0.2-0.5,0.6c0,0.4,0.3,0.6,0.7,0.7c0.7,0.3,1.1,0.6,1.1,1.2
		c0,0.8-0.7,1.2-1.5,1.2c-0.5,0-0.9-0.2-1-0.3c-0.1-0.1-0.1-0.7-0.2-1.1l0.2,0c0.2,0.6,0.6,1.1,1.1,1.1c0.3,0,0.6-0.2,0.6-0.6
		c0-0.4-0.2-0.5-0.7-0.7c-0.5-0.2-1.1-0.5-1.1-1.2c0-0.6,0.5-1.1,1.3-1.1c0.4,0,0.6,0.1,0.8,0.2c0.1,0.2,0.2,0.7,0.2,0.9
		L342.7,615.3z"/>
	<path d="M345.9,615.3c-0.2-0.5-0.5-0.9-0.9-0.9c-0.3,0-0.5,0.2-0.5,0.6c0,0.4,0.3,0.6,0.7,0.7c0.7,0.3,1.1,0.6,1.1,1.2
		c0,0.8-0.7,1.2-1.5,1.2c-0.5,0-0.9-0.2-1-0.3c-0.1-0.1-0.1-0.7-0.2-1.1l0.2,0c0.2,0.6,0.6,1.1,1.1,1.1c0.3,0,0.6-0.2,0.6-0.6
		c0-0.4-0.2-0.5-0.7-0.7c-0.5-0.2-1.1-0.5-1.1-1.2c0-0.6,0.5-1.1,1.3-1.1c0.4,0,0.6,0.1,0.8,0.2c0.1,0.2,0.2,0.7,0.2,0.9
		L345.9,615.3z"/>
	<path d="M348.8,614.2c1.1,0,1.9,0.9,1.9,1.9c0,1.4-1.1,2-1.9,2c-1.2,0-2-0.9-2-1.9C346.8,614.8,348,614.2,348.8,614.2L348.8,614.2z
		 M348.7,614.4c-0.5,0-1,0.5-1,1.5c0,1.1,0.5,1.9,1.2,1.9c0.5,0,1-0.3,1-1.5C349.9,615.2,349.4,614.4,348.7,614.4L348.7,614.4z"/>
	<path d="M354.7,617.2c-0.4,0.5-1,0.9-1.5,0.9c-1.1,0-1.8-0.9-1.8-1.8c0-0.7,0.3-1.2,0.9-1.7c0.5-0.4,1-0.5,1.3-0.5h0
		c0.4,0,0.6,0.1,0.8,0.2c0.1,0.1,0.1,0.2,0.1,0.3c0,0.2-0.2,0.4-0.3,0.4c-0.1,0-0.1,0-0.2-0.1c-0.3-0.3-0.6-0.4-0.9-0.4
		c-0.5,0-1,0.4-1,1.3c0,1.2,0.9,1.6,1.3,1.6c0.4,0,0.7-0.1,1-0.5L354.7,617.2z"/>
	<path d="M355,618v-0.2c0.5-0.1,0.6-0.1,0.6-0.7v-1.7c0-0.5,0-0.6-0.5-0.7v-0.2c0.5-0.1,0.9-0.2,1.3-0.3v2.9c0,0.6,0.1,0.6,0.6,0.7
		v0.2H355z M355.5,613c0-0.3,0.2-0.5,0.5-0.5s0.5,0.2,0.5,0.5c0,0.2-0.2,0.5-0.5,0.5C355.7,613.4,355.5,613.2,355.5,613z"/>
	<path d="M360.2,618.1c-0.2,0-0.4-0.1-0.4-0.2c-0.1-0.1-0.2-0.2-0.2-0.4c-0.4,0.2-0.8,0.5-1,0.5c-0.7,0-1.1-0.5-1.1-1.1
		c0-0.4,0.2-0.7,0.7-0.8c0.6-0.2,1.2-0.4,1.3-0.6v-0.2c0-0.6-0.3-0.9-0.7-0.9c-0.2,0-0.3,0.1-0.4,0.2c-0.1,0.1-0.2,0.3-0.3,0.6
		c-0.1,0.2-0.1,0.2-0.3,0.2c-0.2,0-0.4-0.2-0.4-0.4c0-0.1,0.1-0.2,0.3-0.4c0.3-0.2,0.8-0.5,1.3-0.6c0.3,0,0.5,0.1,0.7,0.2
		c0.3,0.3,0.4,0.6,0.4,1.1v1.5c0,0.4,0.2,0.5,0.3,0.5c0.1,0,0.2,0,0.3-0.1l0.1,0.2L360.2,618.1z M359.5,615.9
		c-0.2,0.1-0.5,0.3-0.7,0.3c-0.3,0.1-0.5,0.3-0.5,0.6c0,0.5,0.3,0.7,0.6,0.7c0.2,0,0.5-0.1,0.6-0.3V615.9z"/>
	<path d="M363.1,618c-0.2,0.1-0.3,0.1-0.4,0.1c-0.6,0-0.9-0.3-0.9-1v-2.5h-0.6l0-0.1l0.2-0.3h0.4v-0.6l0.6-0.6l0.1,0v1.2h1
		c0.1,0.1,0.1,0.3-0.1,0.4h-0.9v2.2c0,0.7,0.3,0.8,0.5,0.8c0.2,0,0.4-0.1,0.5-0.1l0.1,0.2L363.1,618z"/>
	<path d="M364,618v-0.2c0.5-0.1,0.6-0.1,0.6-0.7v-1.7c0-0.5,0-0.6-0.5-0.7v-0.2c0.5-0.1,0.9-0.2,1.3-0.3v2.9c0,0.6,0.1,0.6,0.6,0.7
		v0.2H364z M364.5,613c0-0.3,0.2-0.5,0.5-0.5s0.5,0.2,0.5,0.5c0,0.2-0.2,0.5-0.5,0.5C364.7,613.4,364.5,613.2,364.5,613z"/>
	<path d="M368.4,614.2c1.1,0,1.9,0.9,1.9,1.9c0,1.4-1.1,2-1.9,2c-1.2,0-2-0.9-2-1.9C366.4,614.8,367.6,614.2,368.4,614.2
		L368.4,614.2z M368.3,614.4c-0.5,0-1,0.5-1,1.5c0,1.1,0.5,1.9,1.2,1.9c0.5,0,1-0.3,1-1.5C369.5,615.2,369.1,614.4,368.3,614.4
		L368.3,614.4z"/>
	<path d="M373.4,618v-0.2c0.5-0.1,0.6-0.1,0.6-0.7v-1.4c0-0.6-0.2-1-0.8-1c-0.3,0-0.7,0.2-0.9,0.4v2c0,0.6,0,0.6,0.6,0.7v0.2h-1.9
		v-0.2c0.6-0.1,0.6-0.1,0.6-0.7v-1.7c0-0.6-0.1-0.6-0.5-0.7v-0.2c0.4-0.1,0.9-0.2,1.3-0.3v0.7c0.2-0.1,0.4-0.3,0.6-0.4
		c0.2-0.2,0.5-0.3,0.7-0.3c0.7,0,1.1,0.5,1.1,1.3v1.6c0,0.6,0.1,0.6,0.6,0.7v0.2H373.4z"/>
	<path d="M383.9,614.5c-0.4,0.1-0.5,0.2-0.7,0.6c-0.3,0.7-0.7,1.8-1.1,3h-0.3c-0.4-0.9-0.7-1.8-1.1-2.6c-0.3,0.9-0.7,1.7-1,2.6h-0.3
		c-0.3-1-0.7-2-1-3c-0.2-0.4-0.2-0.5-0.6-0.6v-0.2h1.9v0.2c-0.5,0.1-0.6,0.1-0.4,0.5c0.2,0.6,0.4,1.3,0.6,1.9h0
		c0.3-0.8,0.7-1.7,1-2.6h0.2c0.3,0.9,0.7,1.8,1,2.7h0c0.2-0.5,0.4-1.3,0.6-1.9c0.1-0.4,0.1-0.5-0.5-0.6v-0.2h1.6V614.5z"/>
	<path d="M384.1,618v-0.2c0.5-0.1,0.6-0.1,0.6-0.7v-1.7c0-0.5,0-0.6-0.5-0.7v-0.2c0.5-0.1,0.9-0.2,1.3-0.3v2.9
		c0,0.6,0.1,0.6,0.6,0.7v0.2H384.1z M384.6,613c0-0.3,0.2-0.5,0.5-0.5s0.5,0.2,0.5,0.5c0,0.2-0.2,0.5-0.5,0.5
		C384.8,613.4,384.6,613.2,384.6,613z"/>
	<path d="M388.3,618c-0.2,0.1-0.3,0.1-0.4,0.1c-0.6,0-0.9-0.3-0.9-1v-2.5h-0.6l0-0.1l0.2-0.3h0.4v-0.6l0.6-0.6l0.1,0v1.2h1
		c0.1,0.1,0.1,0.3-0.1,0.4h-0.9v2.2c0,0.7,0.3,0.8,0.5,0.8c0.2,0,0.4-0.1,0.5-0.1l0.1,0.2L388.3,618z"/>
	<path d="M391.6,618v-0.2c0.5-0.1,0.6-0.1,0.6-0.7v-1.4c0-0.7-0.3-1-0.8-1c-0.3,0-0.6,0.2-0.9,0.4v2c0,0.5,0.1,0.6,0.6,0.7v0.2h-1.9
		v-0.2c0.5-0.1,0.6-0.1,0.6-0.7V613c0-0.5,0-0.6-0.6-0.6v-0.2c0.4-0.1,1-0.2,1.3-0.3v2.9c0.3-0.3,0.8-0.6,1.2-0.6
		c0.7,0,1.2,0.4,1.2,1.5v1.5c0,0.6,0.1,0.6,0.6,0.7v0.2H391.6z"/>
	<path d="M401.3,618v-0.2c0.7-0.1,0.7-0.1,0.7-1l0-3.4h0l-2.1,4.7h-0.2l-2-4.5h0l-0.1,2.4c0,0.7,0,1.1,0,1.4c0,0.4,0.2,0.5,0.8,0.5
		v0.3h-2.1v-0.3c0.5,0,0.7-0.2,0.7-0.5c0-0.3,0.1-0.7,0.2-1.6l0.1-1.7c0.1-1.1,0-1.2-0.8-1.2v-0.3h1.5l2,4.2l2-4.2h1.5v0.3
		c-0.8,0.1-0.8,0.1-0.8,0.9l0.1,3.1c0,0.9,0.1,1,0.8,1v0.2H401.3z"/>
	<path d="M406.9,618.1c-0.2,0-0.4-0.1-0.4-0.2c-0.1-0.1-0.2-0.2-0.2-0.4c-0.4,0.2-0.8,0.5-1,0.5c-0.7,0-1.1-0.5-1.1-1.1
		c0-0.4,0.2-0.7,0.7-0.8c0.6-0.2,1.2-0.4,1.3-0.6v-0.2c0-0.6-0.3-0.9-0.7-0.9c-0.2,0-0.3,0.1-0.4,0.2c-0.1,0.1-0.2,0.3-0.3,0.6
		c-0.1,0.2-0.1,0.2-0.3,0.2c-0.2,0-0.4-0.2-0.4-0.4c0-0.1,0.1-0.2,0.3-0.4c0.3-0.2,0.8-0.5,1.3-0.6c0.3,0,0.5,0.1,0.7,0.2
		c0.3,0.3,0.4,0.6,0.4,1.1v1.5c0,0.4,0.2,0.5,0.3,0.5c0.1,0,0.2,0,0.3-0.1l0.1,0.2L406.9,618.1z M406.3,615.9
		c-0.2,0.1-0.5,0.3-0.7,0.3c-0.3,0.1-0.5,0.3-0.5,0.6c0,0.5,0.3,0.7,0.6,0.7c0.2,0,0.5-0.1,0.6-0.3V615.9z"/>
	<path d="M411.4,617.2c-0.4,0.5-1,0.9-1.5,0.9c-1.1,0-1.8-0.9-1.8-1.8c0-0.7,0.3-1.2,0.9-1.7c0.5-0.4,1-0.5,1.3-0.5h0
		c0.4,0,0.6,0.1,0.8,0.2c0.1,0.1,0.1,0.2,0.1,0.3c0,0.2-0.2,0.4-0.3,0.4c-0.1,0-0.1,0-0.2-0.1c-0.3-0.3-0.6-0.4-0.9-0.4
		c-0.5,0-1,0.4-1,1.3c0,1.2,0.9,1.6,1.3,1.6c0.4,0,0.7-0.1,1-0.5L411.4,617.2z"/>
	<path d="M413.5,614.3c0.2-0.1,0.3-0.1,0.4-0.1c1,0,1.8,0.8,1.8,1.8c0,1.2-1,2.1-2.2,2.1c-0.4,0-0.8-0.1-1.3-0.3v-4.7
		c0-0.5,0-0.6-0.6-0.7v-0.2c0.4-0.1,1-0.2,1.3-0.3v2.6L413.5,614.3z M412.9,617c0,0.1,0,0.2,0.1,0.3c0.1,0.2,0.3,0.5,0.8,0.5
		c0.7,0,1.1-0.6,1.1-1.6c0-1-0.6-1.5-1.3-1.5c-0.2,0-0.5,0.1-0.6,0.1V617z"/>
	<path d="M419.5,617.2c-0.6,0.7-1.2,0.9-1.5,0.9c-1.1,0-1.7-0.9-1.7-1.8c0-0.6,0.2-1.1,0.6-1.5c0.4-0.4,0.8-0.7,1.3-0.7h0
		c0.7,0,1.3,0.6,1.3,1.3c0,0.2,0,0.2-0.2,0.3c-0.2,0-1.2,0.1-2.3,0.1c0,1.1,0.7,1.6,1.3,1.6c0.4,0,0.7-0.1,1-0.4L419.5,617.2z
		 M417.9,614.5c-0.4,0-0.8,0.3-0.9,1c0.5,0,0.9,0,1.4,0c0.2,0,0.2-0.1,0.2-0.2C418.7,614.9,418.4,614.5,417.9,614.5L417.9,614.5z"/>
	<path d="M421.4,615.1c0.3-0.5,0.6-0.9,1-0.9c0.3,0,0.5,0.2,0.5,0.4c0,0.2-0.1,0.4-0.3,0.5c-0.1,0-0.2,0-0.2,0
		c-0.1-0.1-0.2-0.2-0.4-0.2c-0.2,0-0.5,0.3-0.7,0.7v1.5c0,0.6,0,0.6,0.7,0.7v0.2H420v-0.2c0.5-0.1,0.6-0.1,0.6-0.7v-1.8
		c0-0.5,0-0.6-0.5-0.7v-0.2c0.4-0.1,0.8-0.2,1.3-0.4L421.4,615.1L421.4,615.1z"/>
</g>
</svg>
