<?xml version="1.0" encoding="utf-8"?>
<!-- Generator: Adobe Illustrator 26.4.1, SVG Export Plug-In . SVG Version: 6.00 Build 0)  -->
<svg version="1.1" id="Layer_1" xmlns="http://www.w3.org/2000/svg" xmlns:xlink="http://www.w3.org/1999/xlink" x="0px" y="0px"
	 viewBox="0 0 800 800" style="enable-background:new 0 0 800 800;" xml:space="preserve">
<style type="text/css">
	.st0{fill:#FFFFFF;}
</style>
<g>
	<path class="st0" d="M171.1,519.9h28.6v-70.7h-13v57.7h-15.6h-0.5l-0.1-36.5h-16c-12.3,0-20.6,8.1-20.6,19.8v49.9
		c0,6.7-1.6,8.5-7.6,9.5v13.1c4-0.1,7.3-0.8,10-2.3c2.6-1.2,4.6-3.1,6.4-5.4c2.9-3.7,4.3-9.3,4.3-16.6v-8.2h2.7
		c8.2,0,14.3-3.4,18.4-10.3L171.1,519.9L171.1,519.9z M157.6,509.1c0,5.4-2.3,8-7.1,8h-3.4v-25.7c0-5.4,2.3-8,7.1-8h3.4V509.1z"/>
	<path class="st0" d="M277.3,519.9h29.1v-70.7h-13v57.7h-15.3v-0.2H268c6.2-7.6,9.5-14.6,9.5-21.1c0-10.3-6.7-15.4-20.3-15.4
		c-4.1,0-8.5,0.4-13.5,1.1l-6.4,15.7c6.2,5.1,10.1,12,12.3,19.2c-1.4,0.4-1.5,0.7-4.1,0.7h-22.7v0h-0.2v-57.7h-13v70.7h13.9v-0.2
		h22.6c7.5,0,8.9-0.2,11.2-1.5c3.4,1.4,4.3,1.5,11.1,1.5h8.9V519.9z M259.2,497.8c-0.8-5.2-2.2-8.8-7.6-14.6l4.4-0.2
		c6,0.1,8.8,1.6,8.8,4.9C264.8,490.4,262.8,493.6,259.2,497.8z"/>
	<rect x="316.3" y="449.2" class="st0" width="13" height="70.7"/>
	<path class="st0" d="M359.8,475.4v23.9c0,12.3,8,20.6,19.9,20.6h67.2v-49.7h-13v36.6h-53c-5.4,0-8.1-2.3-8.1-7.1v-24.3H359.8z"/>
	<rect x="406.1" y="470.3" class="st0" width="13" height="13"/>
	<rect x="387.5" y="470.3" class="st0" width="13.3" height="13"/>
	<rect x="556.4" y="528.1" class="st0" width="13" height="13.3"/>
	<rect x="631.5" y="431.3" class="st0" width="13" height="13.3"/>
	<rect x="622" y="449.8" class="st0" width="13" height="13.3"/>
	<path class="st0" d="M659,470.3v36.6h-14.6v-27.7h-13v27.7h-14.9V488h-13v18.9h-33.4h-0.6h-0.1v-36.6h-13v36.6h-15.3v-0.1h-0.7V500
		c0-11.6-8.6-19.8-20.6-19.8h-20.7v-3.1l36.8-27.7h-21.6l-28.5,21.4v22.5h34.3c4.8,0,7.2,2.6,7.2,8v5.5h-57.2v0.1H470v-57.7h-13
		v70.7h13.9v-0.1h69.4v0.1h29.8v0H672v-49.6H659z"/>
	<rect x="640.7" y="449.8" class="st0" width="13" height="13.3"/>
	<polygon class="st0" points="206.1,594.3 196.5,560.3 192.2,560.3 182.3,594.3 173.4,560.3 169.2,560.3 180,599.1 184.2,599 
		194.2,566 204,599 208.3,599 219.3,560.3 215,560.3 	"/>
	<path class="st0" d="M250.1,570.4c-2.3-1.3-4.9-1.9-7.7-1.9c-2.8,0-5.4,0.6-7.7,1.9c-2.3,1.2-4.1,3.1-5.4,5.4c-1.3,2.3-2,5.1-2,8.2
		c0,3.1,0.7,5.9,2,8.2c1.3,2.3,3.1,4.1,5.4,5.4c2.2,1.2,4.8,1.9,7.5,2c2.9,0,5.5-0.6,7.8-1.9s4.2-3.1,5.5-5.5s2-5.1,2-8.2
		c0-3.1-0.7-5.9-2-8.2C254.2,573.5,252.4,571.7,250.1,570.4z M252,590.6c-1,1.8-2.4,3.2-4.1,4.1c-1.7,0.9-3.6,1.4-5.6,1.4
		s-3.8-0.5-5.5-1.4c-1.6-0.9-3-2.3-4-4.1s-1.5-4.1-1.5-6.7s0.5-4.9,1.5-6.7s2.4-3.2,4.1-4.1c1.7-0.9,3.5-1.4,5.5-1.4
		s3.8,0.5,5.5,1.4c1.7,0.9,3.1,2.3,4.1,4.1c1.1,1.8,1.6,4.1,1.6,6.7S253.1,588.8,252,590.6z"/>
	<path class="st0" d="M282.8,572.2v-4c-2.6,0-4.7,0.6-6.5,1.6c-1.7,1-3,2.4-3.9,4.3v-5.4h-3.9V599h3.9v-16.9c0-3.6,0.8-6.1,2.5-7.6
		c1.7-1.5,4-2.3,6.8-2.3H282.8z"/>
	<rect x="292.5" y="558" class="st0" width="3.9" height="41"/>
	<path class="st0" d="M333.8,592.2v6.8h3.9v-41h-3.9v17.3c-1-2-2.6-3.7-4.7-5c-2.1-1.3-4.5-1.9-7.2-1.9c-2.8,0-5.3,0.6-7.5,1.9
		c-2.2,1.2-3.9,3.1-5.2,5.4s-1.9,5-1.9,8.1c0,3.1,0.7,5.8,1.9,8.2c1.3,2.4,3,4.2,5.2,5.5c2.2,1.3,4.7,1.9,7.5,1.9s5.3-0.7,7.4-2
		C331.4,596,332.9,594.3,333.8,592.2z M328.1,594.6c-1.7,1-3.6,1.5-5.7,1.5c-2.2,0-4.1-0.5-5.8-1.5s-3-2.4-4-4.3s-1.5-4-1.5-6.5
		s0.5-4.7,1.5-6.5s2.3-3.2,4-4.2c1.7-0.9,3.7-1.4,5.8-1.4c2.1,0,4,0.5,5.7,1.5s3.1,2.5,4.1,4.3s1.5,4,1.5,6.4s-0.5,4.6-1.5,6.4
		C331.2,592.2,329.8,593.6,328.1,594.6z"/>
	<polygon class="st0" points="398.6,560.3 394.7,560.3 394.7,592.8 373.2,560.3 369.3,560.3 369.3,599 373.2,599 373.2,566.4 
		394.7,599 398.6,599 	"/>
	<path class="st0" d="M434.1,589.5c-0.5,2-1.7,3.7-3.4,4.9c-1.7,1.2-3.8,1.8-6.3,1.8c-1.9,0-3.7-0.4-5.3-1.2
		c-1.6-0.8-2.9-2.1-3.9-3.7c-1-1.7-1.6-3.6-1.7-5.9h25.1c0.1-0.7,0.1-1.7,0.2-2.9c0-2.6-0.5-4.9-1.7-7.1s-2.8-3.8-5-5.1
		c-2.2-1.3-4.7-1.9-7.6-1.9c-2.9,0-5.4,0.6-7.7,1.9c-2.3,1.2-4,3-5.3,5.4c-1.3,2.4-1.9,5.2-1.9,8.3c0,3.1,0.6,5.9,1.9,8.2
		c1.3,2.3,3,4.1,5.3,5.4c2.2,1.3,4.8,1.9,7.6,1.9c3.6,0,6.7-0.9,9.1-2.8c2.4-1.8,4-4.2,4.7-7.2H434.1z M416.8,574.5
		c2.1-1.9,4.5-2.8,7.4-2.8c1.9,0,3.7,0.4,5.3,1.2c1.7,0.8,3,2,3.9,3.6c1,1.5,1.4,3.5,1.3,5.8h-21.3
		C413.6,579,414.7,576.4,416.8,574.5z"/>
	<path class="st0" d="M455.8,594.6c-0.7-0.7-1.1-2-1.1-3.8V572h8.2v-3.3h-8.3v-7.6h-3.9v7.6h-4.2v3.3h4.2v18.8c0,2.9,0.7,5,2,6.3
		c1.3,1.3,3.4,1.9,6.1,1.9h4.2v-3.3h-3.5C457.7,595.7,456.5,595.3,455.8,594.6z"/>
	<polygon class="st0" points="509.3,568.8 501.8,595.2 493.4,568.8 489.5,568.8 481,595.1 473.5,568.8 469.6,568.8 479.1,599.1 
		483,599.1 491.4,573.7 499.8,599.1 503.7,599.1 513.2,568.8 	"/>
	<path class="st0" d="M548.7,575.8c-1.3-2.3-3.1-4.1-5.4-5.4c-2.3-1.3-4.9-1.9-7.7-1.9s-5.4,0.6-7.7,1.9c-2.3,1.2-4.1,3.1-5.4,5.4
		s-2,5.1-2,8.2c0,3.1,0.7,5.9,2,8.2c1.3,2.3,3.1,4.1,5.4,5.4c2.3,1.2,4.6,2,7.5,2s5.5-0.6,7.8-1.9s4.2-3.1,5.5-5.5s2-5.1,2-8.2
		C550.7,580.9,550,578.1,548.7,575.8z M545.3,590.6c-1,1.8-2.4,3.2-4.1,4.1c-1.7,0.9-3.6,1.4-5.6,1.4s-3.8-0.5-5.5-1.4
		c-1.6-0.9-3-2.3-4-4.1s-1.5-4.1-1.5-6.7s0.5-4.9,1.5-6.7s2.4-3.2,4.1-4.1s3.5-1.4,5.5-1.4s3.8,0.5,5.5,1.4c1.7,0.9,3.1,2.3,4.1,4.1
		c1.1,1.8,1.6,4.1,1.6,6.7S546.4,588.8,545.3,590.6z"/>
	<path class="st0" d="M565.7,574.1v-5.4h-3.9V599h3.9v-16.9c0-3.6,0.8-6.1,2.5-7.6s4-2.3,6.8-2.3h1.1v-4c-2.6,0-4.7,0.6-6.5,1.6
		C567.9,570.8,566.6,572.2,565.7,574.1z"/>
	<polygon class="st0" points="607.2,568.8 601.8,568.8 589.6,582.3 589.6,558 585.7,558 585.7,599 589.6,599 589.6,585.4 602.1,599 
		607.3,599.1 592.8,583.9 	"/>
	<path class="st0" d="M632.4,584.3c-1.3-0.5-3-1.1-5.2-1.7c-1.8-0.5-3.2-1-4.3-1.4c-1.1-0.5-2-1-2.7-1.8c-0.7-0.7-1.1-1.7-1.1-2.9
		c0-1.3,0.6-2.5,1.8-3.4c1.3-0.9,2.8-1.4,4.8-1.4c2.2,0,3.9,0.5,5.2,1.6s2,2.5,2.1,4.3h3.9c-0.1-2.9-1.2-5.1-3.2-6.8
		s-4.6-2.5-7.9-2.5c-2,0-3.9,0.4-5.5,1.1c-1.7,0.7-2.9,1.7-3.8,3c-0.9,1.3-1.3,2.6-1.3,4.1c0,2,0.5,3.5,1.5,4.7c1,1.1,2.2,2,3.6,2.6
		s3.2,1.2,5.5,1.8c1.7,0.4,3.1,0.8,4.1,1.2c1,0.4,1.8,0.9,2.5,1.6c0.7,0.7,1,1.6,1,2.6c0,1.5-0.6,2.7-1.8,3.7s-2.9,1.5-5,1.5
		c-2.4,0-4.3-0.5-5.7-1.6c-1.4-1-2.2-2.4-2.4-4.1h-4c0.3,2.8,1.5,5,3.7,6.6c2.2,1.6,5,2.4,8.4,2.4c2.1,0,3.9-0.4,5.5-1.1
		c1.6-0.7,2.8-1.7,3.7-3c0.9-1.3,1.3-2.8,1.3-4.4c0-1.8-0.5-3.2-1.4-4.3C634.8,585.7,633.7,584.9,632.4,584.3z"/>
	<path class="st0" d="M304.3,403.1c15.6-0.2,29.3-10.8,33.3-26c4.2-15.6-2.6-31.9-16.9-39.5c-4-2.1-5.3-4.3-5.2-8.7
		c0.3-10.4,0.1-20.7,0.1-31c0-1.8,0.1-3.7,0.2-5.3c0.9-0.3,1.2-0.5,1.5-0.5c0.7,0,1.3,0.2,2,0.3c23.8,5.1,41.4,18.6,53,39.9
		c7.1,13.1,9.4,27.2,8.6,41.9c-0.2,4.1,0.9,5.7,5.4,5.7c26.5-0.1,53,0.1,79.5,0.2c1.7,0,3.4-0.2,5-0.3c2.7-25.1-3.3-58.5-15.9-83.5
		c-27.9-55.5-73.1-87-134.7-94.8c-3-0.4-4.7-1-4.6-4.5c0.1-11.4,0.1-22.7,0-34.1c0-3.5,1.4-4.3,4.7-4c32.4,2.7,63,11.6,90.5,28.9
		c66.9,42,101.2,102.8,102.8,181.9c0.1,3.4,0,6.7,0,10.2c8.4,0,15.9,0,23.4,0c8.8-140.6-113.6-254.5-244.6-244.8
		c0,29.7,0,59.4,0,89.6c39.3-2,74.3,8.4,104.1,33.8c29.9,25.4,46.4,57.9,50.5,97.3c-14.7,0-28.5,0-42.3,0
		c-7.1-56.2-58.6-94.9-112.7-88.1c0,1.8,0,3.7,0,5.5c0,18.7-0.1,37.5,0.1,56.2c0,3.9-1,6-4.7,7.9c-14.6,7.6-21.6,24.1-17.4,39.8
		C274.2,392.7,288.1,403.3,304.3,403.1z M304,356.9c5.7,0,10.7,5,10.9,10.8c0.2,6.2-4.6,11.2-10.8,11.3c-6.2,0.1-11.2-4.8-11.2-10.9
		C292.8,362.1,298,356.9,304,356.9z"/>
	<rect x="251.7" y="623.6" class="st0" width="1.9" height="14.6"/>
	<path class="st0" d="M263.3,626.6c-0.8,0-1.5,0.2-2.2,0.5c-0.6,0.4-1.1,0.8-1.5,1.4v-1.6h-1.9v11.5h1.9V632c0-1.3,0.3-2.2,0.9-2.8
		c0.6-0.6,1.4-0.9,2.4-0.9s1.8,0.3,2.4,0.9c0.6,0.6,0.9,1.5,0.9,2.6v6.5h1.9v-6.8c0-1.6-0.4-2.9-1.3-3.7
		C265.9,626.9,264.8,626.5,263.3,626.6z"/>
	<path class="st0" d="M282.9,623.7l-5.3,14.6h2l1.2-3.3h6.4l1.2,3.3h2l-5.3-14.6H282.9z M281.4,633.4l2.6-7.4l2.6,7.4H281.4z"/>
	<path class="st0" d="M299.7,632.5c-0.5-0.3-1.2-0.5-2-0.7c-0.6-0.2-1.1-0.4-1.5-0.5c-0.3-0.2-0.7-0.4-0.9-0.6
		c-0.3-0.2-0.4-0.5-0.4-0.9c0-0.5,0.2-0.9,0.6-1.2c0.4-0.3,0.9-0.4,1.6-0.4c0.8,0,1.4,0.1,1.8,0.5c0.4,0.3,0.7,0.8,0.7,1.4h1.9
		c-0.1-1.1-0.5-2-1.3-2.6c-0.8-0.7-1.8-1-3.1-1c-0.8,0-1.5,0.1-2.2,0.4s-1.2,0.7-1.5,1.2s-0.5,1-0.5,1.6c0,0.7,0.2,1.3,0.6,1.8
		c0.4,0.4,0.9,0.8,1.4,1s1.2,0.5,2.1,0.7c1,0.2,1.7,0.5,2.1,0.7c0.5,0.2,0.7,0.6,0.7,1.1s-0.2,0.9-0.6,1.2c-0.4,0.3-1,0.5-1.7,0.5
		c-0.8,0-1.4-0.1-1.9-0.5s-0.7-0.8-0.8-1.4h-2c0.1,0.7,0.3,1.4,0.7,1.9c0.4,0.6,1,1,1.7,1.3s1.5,0.4,2.2,0.5c0.8,0,1.6-0.1,2.2-0.4
		c0.7-0.3,1.1-0.7,1.5-1.2c0.3-0.5,0.5-1.1,0.5-1.7c0-0.7-0.2-1.3-0.6-1.7C300.7,633,300.2,632.7,299.7,632.5z"/>
	<path class="st0" d="M311.6,632.5c-0.5-0.3-1.2-0.5-2-0.7c-0.6-0.2-1.1-0.4-1.5-0.5c-0.3-0.2-0.7-0.4-0.9-0.6
		c-0.3-0.2-0.4-0.5-0.4-0.9c0-0.5,0.2-0.9,0.6-1.2c0.4-0.3,0.9-0.4,1.6-0.4c0.8,0,1.4,0.1,1.8,0.5c0.4,0.3,0.7,0.8,0.7,1.4h1.9
		c-0.1-1.1-0.5-2-1.3-2.6c-0.8-0.7-1.8-1-3.1-1c-0.8,0-1.5,0.1-2.2,0.4s-1.2,0.7-1.5,1.2s-0.5,1-0.5,1.6c0,0.7,0.2,1.3,0.6,1.8
		c0.4,0.4,0.9,0.8,1.4,1s1.2,0.5,2.1,0.7c1,0.2,1.7,0.5,2.1,0.7c0.5,0.2,0.7,0.6,0.7,1.1s-0.2,0.9-0.6,1.2s-1,0.5-1.7,0.5
		c-0.8,0-1.4-0.1-1.9-0.5s-0.7-0.8-0.8-1.4h-2c0.1,0.7,0.3,1.4,0.7,1.9c0.4,0.6,1,1,1.7,1.3c0.7,0.3,1.4,0.4,2.2,0.5
		c0.8,0,1.6-0.1,2.2-0.4c0.7-0.3,1.1-0.7,1.5-1.2c0.3-0.5,0.5-1.1,0.5-1.7c0-0.7-0.2-1.3-0.6-1.7C312.6,633,312.1,632.7,311.6,632.5
		z"/>
	<path class="st0" d="M325.4,627.3c-0.9-0.5-1.9-0.7-3-0.7c-1.1,0-2.1,0.2-3,0.7c-0.9,0.5-1.6,1.2-2.1,2.1c-0.5,0.9-0.8,1.9-0.8,3.1
		c0,1.2,0.2,2.2,0.7,3.1c0.5,0.9,1.2,1.6,2.1,2.1c0.8,0.5,1.8,0.7,3.1,0.7c1.1,0,2.1-0.2,3-0.7c0.9-0.5,1.6-1.2,2.1-2.1
		c0.5-0.9,0.8-1.9,0.8-3.1c0-1.2-0.3-2.2-0.8-3.1C327,628.5,326.3,627.8,325.4,627.3z M325.6,634.9c-0.4,0.6-0.9,1.1-1.5,1.4
		c-0.6,0.3-1.2,0.4-1.7,0.5c-0.7,0-1.3-0.2-1.9-0.5c-0.6-0.3-1.1-0.8-1.4-1.4c-0.3-0.7-0.5-1.5-0.5-2.4c0-1,0.1-1.8,0.5-2.4
		c0.4-0.6,0.8-1.1,1.4-1.4c0.6-0.3,1.2-0.5,1.9-0.5s1.3,0.2,1.9,0.5c0.6,0.3,1,0.8,1.4,1.4c0.3,0.7,0.5,1.5,0.5,2.4
		C326.2,633.5,326,634.3,325.6,634.9z"/>
	<path class="st0" d="M338.5,636.1c-0.6,0.4-1.3,0.6-2.1,0.6c-1,0-1.9-0.3-2.6-1.1c-0.7-0.7-1-1.8-1-3.2s0.3-2.5,1-3.2
		c0.6-0.7,1.5-1.1,2.6-1.1c0.8,0,1.6,0.2,2.1,0.6s0.9,1,1.1,1.7h2.1c-0.3-1.3-0.9-2.2-1.8-2.9c-0.9-0.7-2.1-1-3.5-1
		c-1.1,0-2.1,0.2-2.9,0.7c-0.9,0.5-1.5,1.2-2,2.1s-0.7,2-0.6,3c0,1.3,0.2,2.3,0.7,3.2c0.5,0.9,1.2,1.6,2,2.1s1.8,0.7,2.9,0.7
		c1.4,0,2.6-0.4,3.5-1.1c0.9-0.7,1.5-1.6,1.8-2.8h-2.1C339.4,635.1,339.1,635.7,338.5,636.1z"/>
	<rect x="345.1" y="626.7" class="st0" width="1.9" height="11.5"/>
	<path class="st0" d="M346.1,622.3c-0.3,0-0.6,0.1-0.9,0.4c-0.3,0.2-0.4,0.6-0.4,0.9s0.1,0.6,0.4,0.9c0.2,0.2,0.5,0.4,0.9,0.4
		c0.4,0,0.7-0.1,0.9-0.4c0.3-0.2,0.4-0.6,0.4-0.9s-0.2-0.6-0.4-0.9C346.7,622.4,346.4,622.3,346.1,622.3z"/>
	<path class="st0" d="M360.2,628.8c-0.4-0.6-1-1.1-1.7-1.6s-1.6-0.7-2.6-0.7s-2,0.2-2.8,0.7c-0.9,0.5-1.5,1.2-2,2.1s-0.7,2-0.7,3.2
		c0,1.2,0.2,2.2,0.7,3.1c0.5,0.9,1.1,1.6,2,2.1c0.9,0.5,1.8,0.8,2.8,0.8s1.9-0.3,2.6-0.7c0.8-0.5,1.3-1,1.7-1.7v2.1h1.9v-11.5h-1.9
		V628.8z M359.6,634.8c-0.3,0.7-0.8,1.2-1.4,1.5c-0.6,0.3-1.3,0.5-2,0.5c-0.8,0-1.4-0.2-2-0.5c-0.6-0.4-1-0.8-1.4-1.5
		c-0.3-0.7-0.5-1.4-0.5-2.3c0-0.9,0.1-1.7,0.5-2.3c0.3-0.7,0.8-1.2,1.4-1.5c0.6-0.3,1.3-0.5,2-0.5c0.8,0,1.4,0.2,2,0.5
		c0.6,0.4,1,0.9,1.4,1.5c0.4,0.6,0.5,1.4,0.5,2.3C360.1,633.4,359.9,634.1,359.6,634.8z"/>
	<path class="st0" d="M368.5,623.8h-1.9v2.9h-1.5v1.6h1.5v6.8c0,1.1,0.3,1.9,0.8,2.4s1.3,0.7,2.4,0.7h1.7v-1.6h-1.4
		c-0.5,0-1-0.1-1.2-0.3c-0.3-0.2-0.4-0.6-0.4-1.2v-6.8v0h3v-1.6h-3V623.8z"/>
	<path class="st0" d="M375.6,622.3c-0.3,0-0.6,0.1-0.9,0.4c-0.3,0.2-0.4,0.6-0.4,0.9s0.1,0.6,0.4,0.9c0.3,0.2,0.6,0.4,0.9,0.4
		c0.4,0,0.7-0.1,0.9-0.4c0.3-0.2,0.4-0.6,0.4-0.9s-0.2-0.6-0.4-0.9C376.2,622.4,375.9,622.3,375.6,622.3z"/>
	<rect x="374.7" y="626.7" class="st0" width="1.9" height="11.5"/>
	<path class="st0" d="M388.9,627.3c-0.9-0.5-1.9-0.7-3-0.7c-1.1,0-2.1,0.2-3,0.7c-0.9,0.5-1.6,1.2-2.1,2.1c-0.5,0.9-0.8,1.9-0.8,3.1
		c0,1.2,0.2,2.2,0.7,3.1c0.5,0.9,1.2,1.6,2.1,2.1c0.9,0.5,1.8,0.7,3.1,0.7c1.1,0,2.1-0.2,3-0.7c0.9-0.5,1.6-1.2,2.1-2.1
		c0.5-0.9,0.8-1.9,0.8-3.1c0-1.2-0.3-2.2-0.8-3.1C390.5,628.5,389.8,627.8,388.9,627.3z M389.2,634.9c-0.4,0.6-0.9,1.1-1.5,1.4
		c-0.6,0.3-1.3,0.4-1.7,0.5c-0.7,0-1.3-0.2-1.9-0.5c-0.6-0.3-1.1-0.8-1.4-1.4c-0.3-0.7-0.5-1.5-0.5-2.4c0-1,0.1-1.8,0.5-2.4
		c0.4-0.6,0.8-1.1,1.4-1.4c0.6-0.3,1.2-0.5,1.9-0.5c0.7,0,1.3,0.2,1.9,0.5c0.6,0.3,1,0.8,1.4,1.4c0.3,0.7,0.5,1.5,0.5,2.4
		C389.8,633.5,389.6,634.3,389.2,634.9z"/>
	<path class="st0" d="M400.6,626.6c-0.8,0-1.5,0.2-2.2,0.5c-0.6,0.4-1.1,0.8-1.5,1.4v-1.6H395v11.5h1.8V632c0-1.3,0.3-2.2,0.9-2.8
		c0.6-0.6,1.4-0.9,2.4-0.9s1.8,0.3,2.4,0.9c0.6,0.6,0.9,1.5,0.9,2.6v6.5h1.9v-6.8c0-1.6-0.4-2.9-1.3-3.7
		C403.1,626.9,402,626.5,400.6,626.6z"/>
	<polygon class="st0" points="429,635.9 425.6,623.5 423.5,623.5 420,635.9 416.8,623.5 414.8,623.5 418.9,638.2 421,638.2 
		424.5,626.4 427.9,638.2 430,638.2 434.2,623.6 434.2,623.5 432.2,623.5 	"/>
	<rect x="437.1" y="626.7" class="st0" width="1.9" height="11.5"/>
	<path class="st0" d="M438.1,622.3c-0.3,0-0.6,0.1-0.9,0.4c-0.3,0.2-0.4,0.6-0.4,0.9s0.1,0.6,0.4,0.9c0.2,0.2,0.6,0.4,0.9,0.4
		c0.4,0,0.6-0.2,0.9-0.4s0.4-0.6,0.4-0.9s-0.2-0.6-0.4-0.9C438.7,622.4,438.4,622.3,438.1,622.3z"/>
	<path class="st0" d="M445.5,623.8h-1.9v2.9h-1.5v1.6h1.5v6.8c0,1.1,0.3,1.9,0.8,2.4s1.3,0.7,2.4,0.7h1.7v-1.6h-1.4
		c-0.5,0-1-0.1-1.2-0.3c-0.3-0.2-0.4-0.6-0.4-1.2v-6.8v0h3v-1.6h-3V623.8z"/>
	<path class="st0" d="M459.7,627.1c-0.7-0.4-1.5-0.6-2.5-0.4c-0.8,0-1.5,0.2-2.2,0.5c-0.7,0.4-1.2,0.8-1.6,1.4v-5.7h-1.9v15.5h1.9
		V632c0-1.3,0.3-2.2,0.9-2.8c0.6-0.6,1.4-0.9,2.4-0.9s1.8,0.3,2.4,0.9c0.6,0.6,0.9,1.5,0.9,2.6v6.5h1.9v-6.8c0-1.1-0.2-2-0.6-2.7
		C460.9,628,460.4,627.5,459.7,627.1z"/>
	<polygon class="st0" points="480,635.7 474.6,623.7 472.5,623.7 472.5,638.2 474.4,638.2 474.4,627.3 479.3,638.2 480.6,638.2 
		485.4,627.4 485.4,638.2 487.3,638.2 487.3,623.7 485.4,623.7 	"/>
	<path class="st0" d="M500.5,628.8c-0.4-0.6-1-1.1-1.7-1.6s-1.6-0.7-2.6-0.7s-2,0.2-2.8,0.7c-0.9,0.5-1.5,1.2-2,2.1s-0.7,2-0.7,3.2
		c0,1.2,0.2,2.2,0.7,3.1c0.5,0.9,1.1,1.6,2,2.1c0.9,0.5,1.8,0.8,2.8,0.8s1.9-0.3,2.6-0.7c0.8-0.5,1.3-1,1.7-1.7v2.1h1.9v-11.5h-1.9
		V628.8z M499.9,634.8c-0.3,0.7-0.8,1.2-1.4,1.5c-0.6,0.3-1.2,0.5-2,0.5s-1.4-0.2-2-0.5c-0.6-0.4-1-0.8-1.4-1.5
		c-0.3-0.7-0.5-1.4-0.5-2.3c0-0.9,0.2-1.7,0.5-2.3c0.3-0.7,0.8-1.2,1.4-1.5c0.6-0.3,1.2-0.5,2-0.5s1.4,0.2,2,0.5
		c0.6,0.4,1.1,0.9,1.4,1.5s0.5,1.4,0.5,2.3C500.4,633.4,500.2,634.1,499.9,634.8z"/>
	<path class="st0" d="M513.4,636.1c-0.6,0.4-1.3,0.6-2.1,0.6c-1,0-1.9-0.3-2.6-1.1c-0.7-0.7-1-1.8-1-3.2s0.3-2.5,1-3.2
		c0.6-0.7,1.5-1.1,2.6-1.1c0.8,0,1.5,0.2,2.1,0.6c0.5,0.4,0.9,1,1.1,1.7h2.1c-0.3-1.3-0.9-2.2-1.8-2.9s-2.1-1-3.5-1
		c-1.1,0-2.1,0.2-2.9,0.7c-0.9,0.5-1.5,1.2-2,2.1c-0.4,0.9-0.7,2-0.6,3c0,1.3,0.2,2.3,0.7,3.2c0.5,0.9,1.2,1.6,2,2.1
		s1.8,0.7,2.9,0.7c1.4,0,2.6-0.4,3.5-1.1s1.5-1.6,1.8-2.8h-2.1C514.3,635.1,514,635.7,513.4,636.1z"/>
	<path class="st0" d="M529.1,627.2c-0.8-0.5-1.8-0.7-2.8-0.7s-1.8,0.3-2.6,0.7c-0.8,0.4-1.4,1-1.8,1.6v-6.2H520v15.5h2V636
		c0.4,0.7,1,1.2,1.7,1.7s1.6,0.7,2.6,0.7s2-0.3,2.8-0.8c0.9-0.5,1.5-1.2,2-2.1c0.5-0.9,0.7-1.9,0.7-3.1c0-1.2-0.2-2.2-0.7-3.1
		C530.6,628.4,529.9,627.7,529.1,627.2z M529.7,632.5c0,0.9-0.2,1.6-0.5,2.3c-0.3,0.7-0.8,1.2-1.4,1.5s-1.3,0.5-2,0.5
		s-1.3-0.2-1.9-0.5c-0.6-0.4-1-0.8-1.4-1.5c-0.3-0.7-0.5-1.4-0.5-2.3c0-0.9,0.1-1.6,0.5-2.3c0.3-0.7,0.8-1.2,1.4-1.5
		c0.6-0.3,1.2-0.5,1.9-0.5c0.8,0,1.4,0.1,2,0.5s1,0.9,1.4,1.5C529.6,630.8,529.8,631.6,529.7,632.5z"/>
	<path class="st0" d="M543.3,627.4c-0.8-0.5-1.8-0.7-2.9-0.7s-2.1,0.2-3,0.7s-1.5,1.2-2,2.1c-0.5,0.9-0.7,1.9-0.7,3.1
		c0,1.2,0.2,2.2,0.7,3.1c0.5,0.9,1.1,1.6,2,2.1c0.8,0.5,1.8,0.7,2.9,0.7c1.3,0,2.5-0.3,3.4-1c0.9-0.7,1.5-1.6,1.8-2.7h-2.1
		c-0.3,0.6-0.6,1.1-1.2,1.5c-0.6,0.4-1.3,0.6-2.1,0.6c-1,0-1.9-0.4-2.6-1c-0.7-0.7-1.1-1.6-1.2-2.7h9.2c0.1-0.4,0.1-0.8,0.4-1
		c0-1-0.2-2-0.7-2.8C544.8,628.5,544.1,627.9,543.3,627.4z M536.3,631.7c0.1-1.1,0.5-2,1.2-2.6c0.7-0.6,1.5-0.9,2.5-0.9
		c0.6,0,1.2,0.1,1.8,0.4c0.5,0.3,1,0.7,1.3,1.2c0.4,0.5,0.5,1.1,0.5,1.9H536.3z"/>
	<path class="st0" d="M550.9,628.8v-1.9H549v11.5h1.9v-6.3c0-2.3,1.1-3.5,3.2-3.5h0.5v-2c-0.9,0-1.7,0.1-2.3,0.5
		C551.7,627.4,551.2,627.9,550.9,628.8z"/>
</g>
</svg>
